<svg width="86" height="86" viewBox="0 0 86 86" fill="none" xmlns="http://www.w3.org/2000/svg">
<path d="M42.7914 41.9572C42.3048 41.9572 41.9224 41.5748 41.9224 41.0881V35.5263C41.8529 28.4002 47.5885 22.5602 54.7494 22.4907C54.8537 22.4907 54.9232 22.4907 55.0275 22.4907C55.5141 22.4907 55.8965 22.8731 55.8965 23.3598C55.8965 23.8464 55.5141 24.2288 55.0275 24.2288C47.9014 24.2288 43.6605 29.9644 43.6605 35.5263V41.0881C43.6605 41.54 43.2781 41.9572 42.7914 41.9572Z" fill="#489C15"/>
<path d="M42.7914 41.9571C42.3048 41.9571 41.9224 41.5747 41.9224 41.0881V35.5262C41.9224 29.9644 37.6815 24.2287 30.5554 24.2287C30.0687 24.2287 29.6863 23.8464 29.6863 23.3597C29.6863 22.873 30.0687 22.4907 30.5554 22.4907C37.6815 22.3864 43.5562 28.122 43.6605 35.2481C43.6605 35.3524 43.6605 35.4219 43.6605 35.5262V41.0881C43.6605 41.54 43.2781 41.9571 42.7914 41.9571Z" fill="#489C15"/>
<path d="M42.7914 53.2546C42.3048 53.2546 41.9224 52.8375 41.9224 52.3856C42.0614 43.9733 48.6661 35.2482 59.4422 35.2482C59.9289 35.2482 60.3112 35.6305 60.3112 36.1172C60.3112 36.6039 59.9289 36.9862 59.4422 36.9862C51.8294 36.9862 43.8343 42.7567 43.6605 52.4204C43.6605 52.8723 43.2781 53.2546 42.7914 53.2546Z" fill="#489C15"/>
<path d="M42.7914 53.2546C42.3047 53.2546 41.9224 52.8722 41.9224 52.3856C41.7486 42.7219 33.7882 36.9515 26.1406 36.9515C25.654 36.9515 25.2716 36.5691 25.2716 36.0824C25.2716 35.5958 25.654 35.2134 26.1406 35.2134C36.9167 35.2134 43.5214 43.9385 43.6604 52.3508C43.6604 52.8722 43.2781 53.2546 42.7914 53.2546Z" fill="#489C15"/>
<path d="M43 0.869019C19.7446 0.869019 0.869049 19.7445 0.869049 43C0.869049 66.2554 19.7446 85.1309 43 85.1309C66.2555 85.1309 85.131 66.2554 85.131 43C85.27 19.8836 66.6726 1.04283 43.5562 0.869019C43.3824 0.869019 43.1738 0.869019 43 0.869019ZM43 81.0986C21.9693 81.0986 4.90139 64.0307 4.90139 43C4.90139 21.9693 21.9693 4.90135 43 4.90135C64.0307 4.90135 81.0986 21.9693 81.0986 43C81.0639 64.0307 64.0307 81.0638 43 81.0986Z" fill="#6924ED"/>
<path d="M43 4.90137C21.9693 4.90137 4.90137 21.9693 4.90137 43C4.90137 64.0307 21.9693 81.0986 43 81.0986C64.0307 81.0986 81.0986 64.0307 81.0986 43C81.2377 22.1083 64.4131 5.04041 43.4867 4.90137C43.3476 4.90137 43.1738 4.90137 43 4.90137ZM43 77.0315C24.194 77.0315 8.96847 61.7712 8.96847 43C8.96847 24.194 24.2288 8.96846 43 8.96846C61.806 8.96846 77.0315 24.2288 77.0315 43C77.0315 61.806 61.806 77.0315 43 77.0315Z" fill="#6924ED"/>
<path d="M61.6669 22.4559C60.2417 20.8917 56.6265 17.8327 51.2037 19.3622C44.3557 21.3088 42.7567 26.523 43.9385 30.3468C43.9385 30.3468 46.5804 31.2158 49.6047 29.2344C52.5246 27.3226 56.6265 31.8416 61.8407 24.1593C62.1536 23.6726 62.1188 22.9426 61.6669 22.4559Z" fill="#489C15"/>
<path d="M23.9159 22.4559C25.3411 20.8917 28.9563 17.8327 34.4139 19.3622C41.2619 21.3088 42.861 26.523 41.6791 30.3468C41.6791 30.3468 39.0372 31.2158 36.0129 29.2344C33.093 27.3573 28.9911 31.8763 23.7769 24.194C23.4293 23.6726 23.464 22.9426 23.9159 22.4559Z" fill="#489C15"/>
<path d="M68.4802 34.9701C66.5335 32.8497 61.5974 28.6783 54.228 30.7987C44.9119 33.4406 42.7219 40.532 44.3209 45.7462C44.3209 45.7462 47.9014 46.9281 52.038 44.2514C56.0008 41.6791 61.5626 47.7971 68.654 37.3687C69.1407 36.5692 69.0711 35.5958 68.4802 34.9701Z" fill="#489C15"/>
<path d="M17.1027 34.9701C19.0493 32.8497 23.9854 28.6783 31.3549 30.7987C40.671 33.4406 42.8609 40.532 41.2619 45.7462C41.2619 45.7462 37.6815 46.9281 33.5448 44.2514C29.6168 41.6096 24.0202 47.7624 16.9289 37.2991C16.4422 36.5692 16.5117 35.5958 17.1027 34.9701Z" fill="#489C15"/>
<path d="M25.4802 55.5836C25.0631 55.5836 24.6807 55.9312 24.6807 56.3831V60.485C24.6807 60.5893 24.5764 60.6936 24.4721 60.6936C24.4026 60.6936 24.3331 60.6588 24.2983 60.5893L21.5521 56.105C21.2393 55.6184 20.6136 55.4446 20.0922 55.7574C19.7793 55.966 19.6055 56.2789 19.6055 56.6612V63.1964C19.6055 63.6135 19.9531 63.9959 20.405 63.9959C20.8222 63.9959 21.2045 63.6483 21.2045 63.1964V59.1988C21.2045 59.0945 21.3088 58.9902 21.4131 58.9902C21.4826 58.9902 21.5521 59.025 21.5869 59.0945L24.2635 63.4397C24.5764 63.9611 25.2369 64.1002 25.7583 63.7873C26.0711 63.5788 26.2797 63.2312 26.2797 62.8488V56.3484C26.2797 55.9312 25.9321 55.5836 25.4802 55.5836Z" fill="#20221D"/>
<path d="M31.772 55.4098C31.1463 55.4098 30.5554 55.5141 29.9644 55.7575C29.5473 55.9313 29.1997 56.1746 28.8868 56.5222C28.574 56.8698 28.2959 57.2522 28.1221 57.6693C27.844 58.3646 27.7049 59.0946 27.7397 59.8246C27.7397 61.1455 28.1221 62.1883 28.8521 62.9531C29.6516 63.7179 30.7292 64.135 31.8068 64.1002C32.9192 64.135 33.962 63.7526 34.7615 62.9531C35.4915 62.1883 35.8739 61.1455 35.8739 59.7898C35.8739 58.4341 35.4915 57.3565 34.7615 56.5917C33.9272 55.7922 32.8496 55.3751 31.772 55.4098ZM33.4406 61.9103C32.6063 62.8141 31.1811 62.8836 30.2425 62.0493C30.2078 62.0145 30.1382 61.945 30.1035 61.9103C29.6516 61.4236 29.443 60.6936 29.443 59.755C29.443 58.7817 29.6516 58.0865 30.0687 57.5998C30.9725 56.6613 32.4325 56.6265 33.3711 57.5303C33.4058 57.5651 33.4058 57.5651 33.4406 57.5998C33.8577 58.0865 34.0663 58.7817 34.0663 59.755C34.0663 60.6936 33.8577 61.4236 33.4406 61.9103Z" fill="#20221D"/>
<path d="M47.1019 59.4422H44.3557C43.9733 59.4422 43.6605 59.7551 43.6605 60.1375C43.6605 60.5198 43.9733 60.8327 44.3557 60.8327H45.3986C45.5028 60.8327 45.6071 60.9022 45.6071 61.0413V61.806C45.6071 61.8755 45.5724 61.9451 45.5376 61.9798C45.2943 62.1536 44.9814 62.3274 44.7033 62.4317C44.3557 62.5708 44.0081 62.6403 43.6257 62.6403C42.9653 62.6751 42.3395 62.397 41.8876 61.9103C41.4357 61.4236 41.2272 60.6589 41.2272 59.6856C41.2272 58.7818 41.4357 58.0865 41.8876 57.5999C42.3395 57.1132 43 56.8699 43.6605 56.9046C44.0776 56.9046 44.5295 57.0089 44.8771 57.2523C45.0509 57.3913 45.19 57.5304 45.2943 57.7042C45.4681 58.017 45.8157 58.1561 46.1981 58.0865C46.65 57.9823 46.9628 57.5651 46.8933 57.0785C46.8585 56.9742 46.8238 56.8351 46.7543 56.7656C46.5805 56.5223 46.3719 56.2789 46.0938 56.1051C45.3638 55.6185 44.5295 55.4099 43.6605 55.4447C42.9653 55.4099 42.27 55.549 41.6443 55.8618C40.9491 56.2094 40.3929 56.7308 40.0453 57.4261C39.6629 58.1561 39.4891 58.9556 39.4891 59.7551C39.4891 60.5198 39.6629 61.2846 39.9758 61.9798C40.2886 62.6403 40.81 63.1965 41.4357 63.5441C42.131 63.9265 42.9305 64.1003 43.73 64.1003C44.4252 64.1003 45.1205 63.9612 45.7809 63.7179C46.3024 63.5441 46.8238 63.2312 47.2409 62.8836C47.2757 62.8489 47.3104 62.7793 47.3104 62.7446V59.6856C47.3104 59.5465 47.2062 59.4422 47.1019 59.4422Z" fill="#20221D"/>
<path d="M55.4794 55.5836C54.8189 55.5836 54.2627 56.0355 54.0889 56.6612L53.0461 60.5893C53.0113 60.6936 52.907 60.7631 52.8027 60.7283C52.7332 60.6936 52.6985 60.6588 52.6637 60.5893L51.6209 56.6612C51.4123 55.8965 50.6475 55.4446 49.8828 55.6531C49.2571 55.827 48.8399 56.3831 48.8399 57.0436V63.1964C48.8399 63.6135 49.2223 63.9611 49.6395 63.9611C50.0566 63.9611 50.4042 63.6135 50.4042 63.1964V58.9555C50.4042 58.8512 50.4737 58.7469 50.6128 58.7469C50.7171 58.7469 50.7866 58.8164 50.7866 58.886L51.8989 63.3702C52.0032 63.7178 52.3161 63.9611 52.6637 63.9611H53.0808C53.4285 63.9611 53.7413 63.7178 53.8456 63.3702L54.958 58.886C54.9927 58.7817 55.097 58.7122 55.2013 58.7469C55.3056 58.7817 55.3403 58.8512 55.3403 58.9207V63.1616C55.3403 63.5788 55.7227 63.9264 56.1399 63.9264C56.557 63.9264 56.9046 63.5788 56.9046 63.1616V57.0088C56.9046 56.2093 56.2789 55.5836 55.4794 55.5836Z" fill="#20221D"/>
<path d="M65.2474 56.557C64.4826 55.7922 63.405 55.3751 62.2926 55.4098C61.6669 55.4098 61.076 55.5141 60.485 55.7575C60.0679 55.9313 59.7203 56.1746 59.4074 56.5222C59.0946 56.8698 58.8165 57.2522 58.6427 57.6693C58.3646 58.3646 58.2256 59.0946 58.2603 59.8246C58.2603 61.1455 58.6427 62.1883 59.3727 62.9531C60.1722 63.7179 61.2498 64.135 62.3274 64.1002C63.4398 64.135 64.4826 63.7526 65.2821 62.9531C66.0121 62.1883 66.3945 61.1455 66.3945 59.7898C66.3597 58.3993 65.9774 57.3217 65.2474 56.557ZM63.9612 61.9103C63.1269 62.8141 61.7017 62.8836 60.7631 62.0493C60.7284 62.0145 60.6589 61.945 60.6241 61.9103C60.1722 61.4236 59.9636 60.6936 59.9636 59.755C59.9636 58.7817 60.1722 58.0865 60.5893 57.5998C61.4931 56.6613 62.9531 56.6265 63.8917 57.5303C63.9264 57.5651 63.9264 57.5651 63.9612 57.5998C64.3783 58.0865 64.5869 58.7817 64.5869 59.755C64.6217 60.6936 64.4131 61.4236 63.9612 61.9103Z" fill="#20221D"/>
<path d="M43 86C19.2579 86 0 66.7421 0 43C0 19.2579 19.2579 0 43 0C66.7421 0 86 19.2579 86 43C85.9652 66.7421 66.7421 85.9652 43 86ZM43 1.73808C20.2312 1.73808 1.73808 20.2312 1.73808 43C1.73808 65.7688 20.2312 84.2619 43 84.2619C65.7688 84.2619 84.2619 65.7688 84.2619 43C84.401 20.3703 66.1859 1.91188 43.5562 1.73808C43.3476 1.73808 43.1738 1.73808 43 1.73808ZM43 81.9677C21.4826 81.9677 4.03234 64.5174 4.03234 43C4.03234 21.4826 21.4826 4.03234 43 4.03234C64.5174 4.03234 81.9677 21.4826 81.9677 43C81.9329 64.5174 64.5174 81.9329 43 81.9677ZM43 5.77041C22.4559 5.77041 5.77041 22.4559 5.77041 43C5.77041 63.5441 22.4559 80.2296 43 80.2296C63.5441 80.2296 80.2296 63.5441 80.2296 43C80.3686 22.5602 63.9264 5.90946 43.4867 5.77041C43.3129 5.77041 43.1738 5.77041 43 5.77041Z" fill="#6924ED"/>
<path d="M43 81.9677C21.4826 81.9677 4.03235 64.5174 4.03235 43C4.03235 21.4826 21.4826 4.03235 43 4.03235C64.5174 4.03235 81.9677 21.4826 81.9677 43C81.9329 64.5174 64.5174 81.9329 43 81.9677ZM43 5.77042C22.456 5.77042 5.77042 22.456 5.77042 43C5.77042 63.5441 22.456 80.2296 43 80.2296C63.5441 80.2296 80.2296 63.5441 80.2296 43C80.3686 22.5602 63.9264 5.90947 43.4867 5.77042C43.3129 5.77042 43.1738 5.77042 43 5.77042ZM43 77.9006C23.7074 77.9006 8.09945 62.2579 8.09945 43C8.09945 23.7421 23.7074 8.09945 43 8.09945C62.2927 8.09945 77.9006 23.7421 77.9006 43C77.9006 62.2579 62.2579 77.9006 43 77.9006ZM43 9.83752C24.6807 9.83752 9.83752 24.6807 9.83752 43C9.83752 61.3193 24.6807 76.1625 43 76.1625C61.3193 76.1625 76.1625 61.3193 76.1625 43C76.1625 24.6807 61.3193 9.83752 43 9.83752Z" fill="#6924ED"/>
<path d="M45.3986 31.4244C44.8076 31.4244 44.2167 31.3548 43.6257 31.181C43.3476 31.0768 43.1391 30.8682 43.0695 30.6249C42.3743 28.3306 42.6176 25.8973 43.7648 23.7768C44.7033 22.0388 46.7195 19.7445 50.9604 18.5626C56.9046 16.8593 60.9022 20.3354 62.3274 21.8997C63.0227 22.6645 63.1269 23.8464 62.536 24.7154C58.8165 30.2077 55.3751 29.9296 52.907 29.7211C51.7252 29.6168 50.8214 29.5473 50.0914 30.0339C48.6661 30.903 47.0671 31.4244 45.3986 31.4244ZM44.599 29.6515C46.1633 29.8601 47.7623 29.443 49.0833 28.5392C50.3347 27.7397 51.6904 27.8439 53.0113 27.9482C55.4099 28.1568 57.9127 28.3654 61.076 23.7073C61.2151 23.4987 61.1803 23.2207 61.0412 23.0468C59.5465 21.4131 56.2789 18.8407 51.4471 20.2312C48.5619 21.0654 46.4414 22.5602 45.329 24.6111C44.46 26.1406 44.2167 27.9482 44.599 29.6515Z" fill="#20221D"/>
<path d="M40.1843 31.4244C38.5158 31.4244 36.9167 30.9029 35.561 29.9991C34.831 29.5125 33.8925 29.582 32.7453 29.6863C30.2425 29.8949 26.8359 30.1729 23.1164 24.6806C22.5255 23.8116 22.595 22.6645 23.325 21.8649C24.7502 20.3007 28.713 16.8593 34.692 18.5278C38.9329 19.7445 40.9491 22.0387 41.8876 23.7421C43.0348 25.8278 43.2781 28.2958 42.5829 30.5901C42.5133 30.8682 42.3048 31.0767 42.0267 31.1463C41.3662 31.3548 40.7753 31.4244 40.1843 31.4244ZM33.962 27.8787C34.8658 27.8439 35.7348 28.0873 36.4996 28.5392C37.8205 29.443 39.4196 29.8253 40.9838 29.6515C41.3662 27.9482 41.1229 26.1754 40.2886 24.6459C39.1762 22.5949 37.0558 21.0654 34.1706 20.2659C29.3387 18.8754 26.0711 21.4478 24.5764 23.0816C24.4026 23.2554 24.4026 23.5335 24.5416 23.7421C27.6702 28.3653 30.1382 28.1568 32.5715 27.9482C33.0234 27.9134 33.4753 27.8787 33.962 27.8787Z" fill="#20221D"/>
<path d="M46.3719 46.8238C45.6071 46.8238 44.8076 46.7195 44.0776 46.5109C43.7995 46.4066 43.5909 46.1981 43.5214 45.9547C42.6176 42.9305 42.9305 39.6629 44.4252 36.882C45.6766 34.5877 48.3533 31.5287 54.0194 29.9297C61.945 27.6702 67.2635 32.2935 69.1407 34.3791C70.0097 35.3177 70.114 36.7429 69.384 37.8205C64.4131 45.1552 60.0679 44.7728 56.557 44.4948C54.9232 44.3557 53.6023 44.2514 52.5247 44.9467C50.6823 46.1633 48.5271 46.8238 46.3719 46.8238ZM45.0162 44.9814C46.0243 45.1552 48.5966 45.3986 51.5513 43.4867C53.1504 42.4438 54.8537 42.5829 56.696 42.7567C59.8941 43.0348 63.5441 43.3476 67.924 36.8472C68.2021 36.4648 68.1326 35.9087 67.8197 35.561C65.734 33.2668 61.215 29.7211 54.4365 31.633C50.4042 32.7801 47.4495 34.9006 45.92 37.751C44.7381 39.941 44.3905 42.5481 45.0162 44.9814Z" fill="#20221D"/>
<path d="M39.2458 46.8238C37.0558 46.789 34.9353 46.1285 33.093 44.9119C31.9806 44.1819 30.6944 44.3209 29.0606 44.46C25.5497 44.7381 21.1698 45.1204 16.2336 37.7857C15.5036 36.7081 15.6079 35.3177 16.477 34.3444C18.3889 32.2587 23.6726 27.6354 31.5982 29.8949C37.2644 31.4939 39.941 34.5877 41.1924 36.8472C42.6872 39.6281 43.0348 42.8957 42.0962 45.92C42.0267 46.198 41.8181 46.4066 41.54 46.4761C40.7753 46.7542 40.0105 46.8585 39.2458 46.8238ZM30.7987 42.6176C31.9458 42.5828 33.0582 42.8609 34.0315 43.4519C36.9515 45.3638 39.5586 45.1552 40.5667 44.9466C41.1924 42.5133 40.8448 39.9062 39.6629 37.7162C38.0986 34.8658 35.1439 32.7453 31.1463 31.5982C24.4026 29.6863 19.8488 33.232 17.7631 35.5262C17.4503 35.8739 17.4155 36.3953 17.6589 36.8124C22.0388 43.2781 25.6888 43 28.8868 42.7219C29.5473 42.6871 30.173 42.6176 30.7987 42.6176Z" fill="#20221D"/>
<path d="M66.5683 68.4455H19.4317C19.2231 68.4455 18.9798 68.3412 18.8407 68.2021C14.3913 63.9265 11.1585 58.5732 9.45514 52.629C9.31609 52.1771 9.59418 51.6904 10.0461 51.5514C10.1156 51.5166 10.2199 51.5166 10.2894 51.5166H75.7454C76.232 51.5166 76.6144 51.899 76.6144 52.3856C76.6144 52.4552 76.6144 52.5594 76.5796 52.629C74.8763 58.5732 71.6435 63.9265 67.194 68.2021C67.0202 68.3412 66.7769 68.4455 66.5683 68.4455ZM19.7793 66.7074H66.2207C70.0445 62.9531 72.8949 58.3646 74.5635 53.2547H11.4365C13.1051 58.3299 15.9555 62.9531 19.7793 66.7074Z" fill="#6924ED"/>
</svg>
