<svg width="87" height="86" viewBox="0 0 87 86" fill="none" xmlns="http://www.w3.org/2000/svg">
<path d="M43.4912 0.869263C19.9606 0.869263 0.879318 19.7312 0.879318 42.9914C0.879318 66.2515 19.9606 85.1134 43.4912 85.1134C67.0218 85.1134 86.1031 66.2515 86.1031 42.9914C86.2789 19.8877 67.4439 1.02572 44.054 0.869263C43.8781 0.869263 43.6847 0.869263 43.4912 0.869263ZM43.4912 81.0977C22.1941 81.0977 4.94178 64.0437 4.94178 42.9914C4.94178 21.939 22.2116 4.88503 43.4912 4.88503C64.7708 4.88503 82.0406 21.939 82.0406 42.9914C82.023 64.0263 64.7708 81.0803 43.4912 81.0977Z" fill="#6924ED"/>
<path d="M43.4912 4.88501C22.194 4.88501 4.94177 21.939 4.94177 42.9913C4.94177 64.0437 22.194 81.0977 43.4912 81.0977C64.7883 81.0977 82.0406 64.0437 82.0406 42.9913C82.1813 22.0781 65.1401 5.02408 44.0012 4.88501C43.8429 4.88501 43.6671 4.88501 43.4912 4.88501ZM43.4912 77.0471C24.4627 77.0471 9.03941 61.8011 9.03941 42.9913C9.03941 24.1816 24.4627 8.93555 43.4912 8.93555C62.5197 8.93555 77.943 24.1816 77.943 42.9913C77.943 61.8011 62.5197 77.0471 43.4912 77.0471Z" fill="#6924ED"/>
<path d="M43.4912 81.9668C32.9569 81.9668 23.0558 77.9163 15.6167 70.5454C8.17767 63.1918 4.06245 53.4045 4.06245 42.9913C4.06245 32.5781 8.16008 22.7908 15.6167 15.4372C23.0558 8.08367 32.9569 4.01575 43.4912 4.01575C43.6495 4.01575 43.8253 4.01575 44.0012 4.01575C54.4651 4.08528 64.2783 8.17059 71.6295 15.5415C78.9806 22.9125 82.9903 32.6476 82.9199 42.9913C82.9199 53.4045 78.8223 63.1918 71.3657 70.5454C63.909 77.8989 54.0255 81.9668 43.4912 81.9668ZM43.755 5.75417C43.6671 5.75417 43.5967 5.75417 43.5088 5.75417C22.7392 5.75417 5.83868 22.4605 5.83868 42.9913C5.83868 63.5221 22.7392 80.2284 43.5088 80.2284C64.2783 80.2284 81.1789 63.5221 81.1789 42.9913C81.2492 33.0996 77.4154 23.799 70.3984 16.7584C63.3638 9.73517 53.9903 5.82371 44.0012 5.75417C43.9133 5.75417 43.8253 5.75417 43.755 5.75417ZM43.4912 77.9163C24.0054 77.9163 8.16008 62.2531 8.16008 42.9913C8.16008 23.7295 24.0054 8.06628 43.4912 8.06628C62.977 8.06628 78.8223 23.7295 78.8223 42.9913C78.8223 52.3266 75.1468 61.0883 68.4815 67.6943C61.7987 74.283 52.9351 77.9163 43.4912 77.9163ZM43.4912 9.80471C24.9727 9.80471 9.91872 24.6856 9.91872 42.9913C9.91872 61.2969 24.9727 76.1779 43.4912 76.1779C52.4603 76.1779 60.8842 72.7184 67.2329 66.4601C73.5816 60.2017 77.0637 51.8573 77.0637 42.9913C77.0637 24.703 62.0097 9.80471 43.4912 9.80471Z" fill="#6924ED"/>
<path d="M50.174 15.8718C50.174 14.9505 49.4178 14.1855 48.4682 14.1855H38.5142C37.5822 14.1855 36.8084 14.9331 36.8084 15.8718C36.8084 16.8106 37.5646 17.5581 38.5142 17.5581H48.4682C49.4178 17.5581 50.174 16.8106 50.174 15.8718Z" fill="#E84918"/>
<path d="M58.7034 44.8688C58.6155 39.3058 55.4148 34.2296 50.4027 31.7089C48.5033 30.7701 47.2899 28.8579 47.2723 26.7544V17.5581H39.7277V26.7196C39.7453 28.8057 38.567 30.718 36.7028 31.6567C31.6204 34.1601 28.3845 39.2537 28.2789 44.8688H58.7034Z" fill="#E84918"/>
<path d="M28.2789 44.8689H58.7034C58.6331 40.7836 56.892 36.9069 53.8848 34.1254H33.1152C30.0903 36.9069 28.3493 40.7836 28.2789 44.8689Z" fill="#E84918"/>
<path d="M17.3402 53.5957C17.7095 53.5609 18.0789 53.7869 18.202 54.1346C18.2899 54.378 18.4482 54.5866 18.6416 54.743C18.9933 55.0212 19.433 55.1603 19.8727 55.1255C20.3123 55.1603 20.752 55.0386 21.1213 54.7778C21.3851 54.5866 21.5258 54.2911 21.5434 53.9781C21.5434 53.7869 21.4906 53.6131 21.3675 53.474C21.1916 53.3002 20.9806 53.1785 20.752 53.1089C20.5585 53.0394 20.1013 52.9177 19.3802 52.7439C18.6768 52.6222 18.0261 52.3266 17.4457 51.9094C16.9533 51.4922 16.6544 50.8664 16.6719 50.2231C16.6719 49.8059 16.795 49.3887 17.0413 49.0236C17.305 48.6412 17.6744 48.3456 18.0964 48.1718C18.624 47.9632 19.1868 47.8589 19.7671 47.8763C20.8223 47.8763 21.6313 48.1023 22.1589 48.5716C22.3875 48.7629 22.5634 48.9889 22.7041 49.2322C22.9151 49.6495 22.7568 50.1536 22.3524 50.3622C22.2468 50.4144 22.1237 50.4491 22.0006 50.4491H21.9655C21.6137 50.4491 21.2972 50.2579 21.1565 49.945C21.0861 49.7885 20.9806 49.6668 20.8575 49.5451C20.5409 49.3365 20.154 49.2322 19.7671 49.267C19.3627 49.2496 18.9406 49.3539 18.6064 49.5625C18.4306 49.6842 18.3251 49.8755 18.3426 50.0841C18.3426 50.2753 18.4306 50.4665 18.5889 50.5882C19.0637 50.8664 19.6089 51.0576 20.154 51.1445C20.7872 51.2662 21.4027 51.4748 22.0006 51.753C22.3875 51.9442 22.7041 52.2397 22.9327 52.6048C23.4075 53.4392 23.3724 54.4649 22.8624 55.282C22.581 55.6992 22.1941 56.0295 21.7192 56.2207C21.1389 56.4467 20.5058 56.551 19.8727 56.5336C18.7999 56.5336 17.9909 56.2902 17.4106 55.8035C17.0588 55.508 16.795 55.1255 16.6368 54.7083C16.4785 54.2737 16.6895 53.7869 17.1292 53.6305C17.1995 53.6305 17.2699 53.6131 17.3402 53.5957Z" fill="#20221D"/>
<path d="M24.3572 52.2744C24.3396 51.5443 24.4627 50.8142 24.7441 50.1362C24.9375 49.7189 25.2013 49.3191 25.5355 48.9888C25.852 48.6585 26.2213 48.4151 26.6258 48.2413C27.2062 48.0153 27.8217 47.8936 28.4548 47.911C29.5627 47.8588 30.6531 48.2761 31.4445 49.0583C32.2007 49.8233 32.57 50.8837 32.57 52.2397C32.57 53.5956 32.2007 54.6387 31.4621 55.4036C30.6707 56.1859 29.5979 56.6031 28.49 56.551C27.3644 56.6031 26.2917 56.1859 25.4827 55.421C24.7265 54.6561 24.3572 53.613 24.3572 52.2744ZM26.1158 52.2223C26.1158 53.161 26.3444 53.8912 26.7841 54.3779C27.6282 55.2993 29.0703 55.3688 30.0024 54.517C30.0552 54.4822 30.0903 54.4301 30.1431 54.3779C30.5828 53.8912 30.7938 53.161 30.7938 52.2049C30.7938 51.2488 30.5828 50.536 30.1607 50.0666C29.2462 49.1453 27.7513 49.1279 26.8193 50.0145C26.8017 50.0319 26.7841 50.0492 26.7665 50.0666C26.3268 50.536 26.1158 51.2661 26.1158 52.2223Z" fill="#20221D"/>
<path d="M33.9418 55.6818V48.9541C33.9418 48.4847 34.3287 48.1023 34.8035 48.1023C35.2784 48.1023 35.6653 48.4847 35.6653 48.9541V54.8648C35.6653 54.9343 35.718 55.0038 35.8059 55.0038H39.2001C39.587 55.0038 39.9212 55.3168 39.9212 55.7166C39.9212 56.0991 39.6046 56.4294 39.2001 56.4294H34.698C34.2583 56.412 33.9418 56.0817 33.9418 55.6818Z" fill="#20221D"/>
<path d="M42.0843 55.5602L39.7805 49.1628C39.6222 48.7282 39.8508 48.2588 40.2905 48.1023C40.3784 48.0676 40.4839 48.0502 40.5719 48.0502H40.6246C40.9939 48.0502 41.3105 48.2762 41.4336 48.6239L43.245 53.8739C43.2626 53.9434 43.3505 53.9782 43.4209 53.9608C43.456 53.9434 43.4912 53.9087 43.5088 53.8739L45.2674 48.6412C45.373 48.2935 45.7071 48.0676 46.0764 48.0676C46.5513 48.0676 46.9206 48.4326 46.9206 48.902C46.9206 49.0063 46.903 49.0932 46.8678 49.1801L44.5464 55.5776C44.3705 56.0817 43.8781 56.4294 43.3329 56.4294C42.7526 56.412 42.2602 56.0643 42.0843 55.5602Z" fill="#20221D"/>
<path d="M55.7841 55.6297V49.1106C55.7841 48.5369 56.2589 48.0502 56.8569 48.0502C57.2262 48.0502 57.5779 48.2414 57.7714 48.5543L60.6731 53.2307C60.7083 53.3002 60.7962 53.3176 60.8666 53.2828C60.9018 53.2655 60.9369 53.2133 60.9369 53.1611V48.8325C60.9369 48.3979 61.2887 48.0502 61.7283 48.0502C62.168 48.0502 62.5197 48.3979 62.5197 48.8325V55.3516C62.5197 55.9252 62.0449 56.412 61.4469 56.412H61.3766C61.0073 56.412 60.6731 56.2208 60.4621 55.9079L57.6131 51.3532C57.5779 51.2836 57.49 51.2663 57.4197 51.301C57.3845 51.3184 57.3493 51.3706 57.3493 51.4227V55.6297C57.3493 56.0643 56.9976 56.412 56.5579 56.412C56.1358 56.412 55.7841 56.0643 55.7841 55.6297Z" fill="#20221D"/>
<path d="M69.6949 48.0502H64.4014C64.0145 48.0502 63.6804 48.3631 63.6804 48.7629C63.6804 49.1454 63.997 49.4757 64.4014 49.4757H66.0018C66.1073 49.4757 66.1952 49.5626 66.1952 49.6669V55.5776C66.1952 56.0469 66.5821 56.4294 67.057 56.4294C67.5318 56.4294 67.9187 56.0469 67.9187 55.5776V49.6669C67.9187 49.5626 68.0066 49.4757 68.1122 49.4757H69.7125C70.0994 49.4757 70.4336 49.1628 70.4336 48.7629C70.416 48.3631 70.0994 48.0502 69.6949 48.0502Z" fill="#20221D"/>
<path d="M43.4912 86C19.4682 86 0 66.7382 0 42.9913C0 19.2444 19.4682 0 43.4912 0C67.5142 0 86.9824 19.2444 86.9824 42.9913C86.9648 66.7382 67.5142 85.9652 43.4912 86ZM43.4912 1.73843C20.453 1.73843 1.75864 20.2179 1.75864 42.9913C1.75864 65.7647 20.453 84.2442 43.4912 84.2442C66.5294 84.2442 85.2238 65.7647 85.2238 42.9913C85.382 20.357 66.9339 1.8775 44.0364 1.73843C43.8605 1.73843 43.6847 1.73843 43.4912 1.73843ZM43.4912 81.9668C21.7192 81.9668 4.06246 64.513 4.06246 42.9913C4.06246 21.4696 21.7192 4.01577 43.4912 4.01577C65.2632 4.01577 82.9199 21.4696 82.9199 42.9913C82.9024 64.513 65.2632 81.9495 43.4912 81.9668ZM43.4912 5.75419C22.6865 5.75419 5.8211 22.4257 5.8211 42.9913C5.8211 63.5569 22.6865 80.2284 43.4912 80.2284C64.2959 80.2284 81.1613 63.5569 81.1613 42.9913C81.302 22.5648 64.6477 5.89327 43.9836 5.75419C43.8253 5.75419 43.6671 5.75419 43.4912 5.75419Z" fill="#6924ED"/>
<path d="M30.4245 59.6976H33.5549C33.9418 59.6976 34.2759 59.3847 34.2759 58.9848C34.2759 58.6024 33.9594 58.2721 33.5549 58.2721H29.1055C28.7538 58.2721 28.4724 58.5502 28.4724 58.8979V65.7821C28.4548 66.2515 28.8417 66.6339 29.3165 66.6513C29.7914 66.6687 30.1783 66.2862 30.1959 65.8169C30.1959 65.7995 30.1959 65.7995 30.1959 65.7821V63.696C30.1959 63.3483 30.4773 63.0701 30.829 63.0701H33.0097C33.3966 63.0701 33.7307 62.7572 33.7307 62.3574C33.7307 61.9749 33.4142 61.6446 33.0097 61.6446H30.4245C30.2838 61.6446 30.1783 61.5403 30.1783 61.4013V59.9062C30.1783 59.8019 30.2838 59.6976 30.4245 59.6976Z" fill="#20221D"/>
<path d="M44.2123 66.0081V58.9153C44.2123 58.5676 44.4936 58.2894 44.8454 58.2894H49.7696C50.1565 58.2894 50.4906 58.6023 50.4906 59.0022C50.4906 59.3846 50.1741 59.7149 49.7696 59.7149H46.5513C46.1995 59.7149 45.9181 59.9931 45.9181 60.3408V60.9318C45.9181 61.2795 46.1995 61.5577 46.5513 61.5577H49.453C49.8399 61.5577 50.174 61.8706 50.174 62.2704C50.174 62.6529 49.8575 62.9832 49.453 62.9832H46.5513C46.1995 62.9832 45.9181 63.2613 45.9181 63.609V64.6173C45.9181 64.965 46.1995 65.2431 46.5513 65.2431H49.9278C50.3147 65.2431 50.6489 65.5561 50.6489 65.9559C50.6489 66.3383 50.3323 66.6687 49.9278 66.6687H44.8454C44.4936 66.6513 44.2123 66.3557 44.2123 66.0081Z" fill="#20221D"/>
<path d="M52.091 66.0081V58.9153C52.091 58.5676 52.3724 58.2894 52.7241 58.2894H57.6483C58.0352 58.2894 58.3693 58.6023 58.3693 59.0022C58.3693 59.3846 58.0528 59.7149 57.6483 59.7149H54.43C54.0782 59.7149 53.7969 59.9931 53.7969 60.3408V60.9318C53.7969 61.2795 54.0782 61.5577 54.43 61.5577H57.3317C57.7186 61.5577 58.0528 61.8706 58.0528 62.2704C58.0528 62.6529 57.7362 62.9832 57.3317 62.9832H54.43C54.0782 62.9832 53.7969 63.2613 53.7969 63.609V64.6173C53.7969 64.965 54.0782 65.2431 54.43 65.2431H57.8066C58.1935 65.2431 58.5276 65.5561 58.5276 65.9559C58.5276 66.3383 58.2111 66.6687 57.8066 66.6687H52.7241C52.3724 66.6513 52.091 66.3731 52.091 66.0081Z" fill="#20221D"/>
<path d="M42.2602 65.0172C41.9788 64.5304 41.6446 64.0784 41.2929 63.6612L40.9939 63.3483C40.8532 63.2092 40.8708 62.9832 41.0115 62.8441C41.0467 62.8094 41.0819 62.792 41.1346 62.7746C42.0667 62.4791 42.6646 61.5925 42.6119 60.619C42.6119 60.1496 42.4888 59.6976 42.2426 59.2978C42.0139 58.9327 41.6622 58.6545 41.2577 58.4981C40.6246 58.3242 39.9563 58.2373 39.2881 58.2721H36.3335C35.9818 58.2721 35.7004 58.5502 35.7004 58.8979V65.7821C35.7004 66.2515 36.0873 66.6339 36.5622 66.6339C37.037 66.6339 37.4239 66.2515 37.4239 65.7821V63.47C37.4239 63.2961 37.5646 63.1397 37.758 63.1223H37.7756C38.057 63.1049 38.356 63.1397 38.6374 63.2092C38.8308 63.2788 39.0067 63.4004 39.1474 63.5569C39.4815 63.9394 39.7805 64.3566 40.0443 64.7912L41.0115 66.2341C41.2753 66.6339 41.8205 66.7208 42.225 66.4601C42.6119 66.1993 42.7174 65.6952 42.4712 65.2953L42.2602 65.0172ZM40.6598 61.3665C40.5367 61.5403 40.3784 61.662 40.185 61.7142C39.675 61.8011 39.1649 61.8359 38.6549 61.8185H37.7053C37.5294 61.8185 37.3887 61.6794 37.3887 61.5056V59.9931C37.3887 59.8193 37.5294 59.6802 37.7053 59.6802H38.7253C39.4112 59.6802 39.8332 59.6976 39.9739 59.715C40.2201 59.7497 40.4488 59.854 40.6246 60.0453C40.7829 60.2365 40.8708 60.4799 40.8532 60.7233C40.8532 60.9666 40.7829 61.1753 40.6598 61.3665Z" fill="#20221D"/>
<path d="M64.507 70.8583H22.4754C22.282 70.8583 22.0885 70.7887 21.9302 70.6844C13.7701 64.4956 8.75801 55.0907 8.19524 44.9383C8.17766 44.4516 8.54697 44.0517 9.02181 44.017C9.03939 44.017 9.05698 44.017 9.07456 44.017H77.8726C78.3651 44.017 78.752 44.3994 78.752 44.8862C78.752 44.9036 78.752 44.921 78.752 44.9383C78.1892 55.0907 73.1771 64.4956 65.017 70.7018C64.8939 70.7887 64.7004 70.8583 64.507 70.8583ZM22.792 69.1199H64.208C71.5591 63.4178 76.1843 54.9517 76.9581 45.738H10.0418C10.8156 54.9517 15.4233 63.4178 22.792 69.1199Z" fill="black"/>
<path d="M58.7034 45.738H28.2789C27.7865 45.738 27.3996 45.3555 27.3996 44.8688V44.8514C27.4524 40.5401 29.299 36.42 32.5173 33.4821C32.6756 33.3256 32.8866 33.2561 33.1152 33.2561H53.8848C54.1134 33.2561 54.3244 33.343 54.4827 33.4821C57.6834 36.42 59.53 40.5227 59.5828 44.8514C59.6004 45.3382 59.2135 45.738 58.7034 45.738C58.721 45.738 58.721 45.738 58.7034 45.738ZM29.211 43.9996H57.789C57.5252 40.5923 56.0127 37.3936 53.533 34.9945H33.4669C30.9873 37.3936 29.4572 40.5923 29.211 43.9996Z" fill="#20221D"/>
<path d="M46.6392 38.9407C46.5864 38.9407 46.516 38.9407 46.4633 38.9234C46.3578 38.906 46.2347 38.8538 46.1467 38.8017C46.094 38.7669 46.0588 38.7321 46.006 38.6974C45.9709 38.6626 45.9357 38.6104 45.9005 38.5583C45.8302 38.4714 45.795 38.3497 45.7774 38.2454C45.7598 38.1411 45.7598 38.0194 45.7774 37.8977C45.795 37.7934 45.8478 37.6717 45.9005 37.5848C45.9357 37.5326 45.9709 37.4978 46.006 37.4457C46.0412 37.4109 46.094 37.3762 46.1467 37.3414C46.2347 37.2719 46.3578 37.2371 46.4633 37.2197C46.5688 37.2023 46.6919 37.2023 46.815 37.2197C46.8678 37.2371 46.9205 37.2545 46.9733 37.2719C47.0261 37.2892 47.0788 37.324 47.1316 37.3588C47.2195 37.4283 47.3074 37.4979 47.3778 37.6022C47.413 37.6543 47.4305 37.7065 47.4657 37.7586C47.4833 37.8108 47.5009 37.8629 47.5185 37.9151C47.5361 38.0194 47.5361 38.1411 47.5185 38.2628C47.5009 38.3671 47.4481 38.4887 47.3954 38.5757C47.3602 38.6278 47.325 38.6626 47.2898 38.7147C47.2547 38.7495 47.2019 38.7843 47.1492 38.8191C47.0964 38.8538 47.0436 38.8712 46.9909 38.906C46.9381 38.9234 46.8854 38.9407 46.8326 38.9581C46.7623 38.9234 46.7095 38.9407 46.6392 38.9407Z" fill="#20221D"/>
<path d="M40.4312 42.4524C39.0067 42.4524 37.846 41.305 37.846 39.8969C37.846 38.4888 39.0067 37.3414 40.4312 37.3414C41.8557 37.3414 43.0164 38.4888 43.0164 39.8969C43.0164 41.305 41.8557 42.4524 40.4312 42.4524ZM40.4312 39.0799C39.9739 39.0799 39.6046 39.4449 39.6046 39.8969C39.6046 40.3489 39.9739 40.714 40.4312 40.714C40.8884 40.714 41.2577 40.3489 41.2577 39.8969C41.2577 39.4449 40.8884 39.0799 40.4312 39.0799Z" fill="#20221D"/>
<path d="M48.0285 55.7862V48.676C48.0285 48.3283 48.3099 48.0502 48.6616 48.0502H53.5858C53.9727 48.0502 54.3068 48.3631 54.3068 48.7629C54.3068 49.1454 53.9903 49.4757 53.5858 49.4757H50.3675C50.0158 49.4757 49.7344 49.7538 49.7344 50.1015V50.6926C49.7344 51.0403 50.0158 51.3184 50.3675 51.3184H53.2692C53.6561 51.3184 53.9903 51.6313 53.9903 52.0312C53.9903 52.4136 53.6737 52.7439 53.2692 52.7439H50.3675C50.0158 52.7439 49.7344 53.0221 49.7344 53.3698V54.378C49.7344 54.7257 50.0158 55.0039 50.3675 55.0039H53.7441C54.131 55.0039 54.4651 55.3168 54.4651 55.7166C54.4651 56.0991 54.1486 56.4294 53.7441 56.4294H48.6616C48.3099 56.412 48.0285 56.1339 48.0285 55.7862Z" fill="#20221D"/>
<path d="M64.507 70.8583H22.4754C22.282 70.8583 22.0885 70.7887 21.9302 70.6844C13.7701 64.4956 8.75801 55.0907 8.19524 44.9383C8.17766 44.4516 8.54697 44.0517 9.02181 44.017C9.03939 44.017 9.05698 44.017 9.07456 44.017H77.8726C78.3651 44.017 78.752 44.3994 78.752 44.8862C78.752 44.9036 78.752 44.921 78.752 44.9383C78.1892 55.0907 73.1771 64.4956 65.017 70.7018C64.8939 70.7887 64.7004 70.8583 64.507 70.8583ZM22.792 69.1199H64.208C71.5591 63.4178 76.1843 54.9517 76.9581 45.738H10.0418C10.8156 54.9517 15.4233 63.4178 22.792 69.1199Z" fill="#6924ED"/>
<path d="M48.4681 18.4274H38.5142C37.0897 18.4274 35.929 17.28 35.929 15.8719C35.929 14.4638 37.0897 13.3164 38.5142 13.3164H48.4681C49.8926 13.3164 51.0533 14.4638 51.0533 15.8719C51.0533 17.28 49.8926 18.4274 48.4681 18.4274ZM38.5142 15.0722C38.057 15.0722 37.6877 15.4373 37.6877 15.8893C37.6877 16.3413 38.057 16.7063 38.5142 16.7063H48.4681C48.9254 16.7063 49.2947 16.3413 49.2947 15.8893C49.2947 15.4373 48.9254 15.0722 48.4681 15.0722H38.5142Z" fill="#E84918"/>
<path d="M58.7035 45.7381H28.2789C27.7865 45.7381 27.3996 45.3556 27.3996 44.8689V44.8515C27.4876 38.9061 30.9169 33.5169 36.2984 30.8745C37.8635 30.0749 38.8484 28.4581 38.8484 26.7023V17.5582C38.8484 17.0714 39.2353 16.689 39.7277 16.689H47.2723C47.7647 16.689 48.1516 17.0714 48.1516 17.5582V26.7545C48.1692 28.5277 49.1892 30.1444 50.8072 30.9267C56.1183 33.6039 59.5124 38.9582 59.6004 44.8515C59.6004 45.3382 59.2135 45.7381 58.7035 45.7381C58.721 45.7381 58.7035 45.7381 58.7035 45.7381ZM29.211 43.9997H57.789C57.4021 39.0799 54.4475 34.7165 49.9982 32.4739C47.7999 31.3961 46.393 29.1709 46.393 26.7545V18.4274H40.607V26.7197C40.607 29.1361 39.2529 31.3439 37.0897 32.4391C32.5876 34.6469 29.5979 39.0451 29.211 43.9997Z" fill="#20221D"/>
</svg>
