<svg width="88" height="86" viewBox="0 0 88 86" fill="none" xmlns="http://www.w3.org/2000/svg">
<path d="M44.5691 0.869019C44.3913 0.869019 44.1779 0.869019 44 0.869019C20.2037 0.869019 0.889252 19.7445 0.889252 43C0.889252 66.2554 20.2037 85.1309 44 85.1309C67.7963 85.1309 87.1108 66.2554 87.1108 43C87.253 19.8836 68.2231 1.04283 44.5691 0.869019ZM44 77.0315C24.7922 77.0315 9.17704 61.7538 9.17704 42.9478C9.17704 24.1766 24.7567 8.86417 44 8.86417C44.1423 8.86417 44.3201 8.86417 44.4268 8.86417C63.5635 9.03798 78.9652 24.2809 78.823 42.9478C78.823 61.7191 63.2433 77.0315 44 77.0315Z" fill="#E84918"/>
<path d="M44 4.90137C22.4802 4.90137 5.01538 21.9693 5.01538 43C5.01538 64.0307 22.4802 81.0986 44 81.0986C65.5198 81.0986 82.9847 64.0307 82.9847 43C83.127 22.1083 65.9111 5.04041 44.498 4.90137C44.3557 4.90137 44.1779 4.90137 44 4.90137ZM44 77.0315C24.7567 77.0315 9.17706 61.7712 9.17706 43C9.17706 24.194 24.7923 8.96846 44 8.96846C63.2434 8.96846 78.823 24.2288 78.823 43C78.823 61.806 63.2434 77.0315 44 77.0315Z" fill="#E84918"/>
<path d="M47.7704 17.9022C47.9483 17.7284 47.9483 17.4503 47.7704 17.2765C47.6993 17.207 47.5926 17.1722 47.5214 17.1375L45.6362 16.8594C45.4939 16.8246 45.3517 16.7551 45.2805 16.616L44.4268 14.9475C44.3201 14.7389 44.0356 14.6346 43.8221 14.7389C43.7154 14.7737 43.6443 14.8432 43.6087 14.9475L42.7551 16.616C42.6839 16.7551 42.5416 16.8246 42.3994 16.8594L40.5141 17.1375C40.2652 17.1722 40.0873 17.4155 40.1229 17.6589C40.1229 17.7632 40.194 17.8327 40.2652 17.9022L41.6524 19.2231C41.7591 19.3274 41.7947 19.4665 41.7947 19.6055L41.4745 21.4479C41.439 21.6912 41.6168 21.9345 41.8658 21.9693C41.9725 21.9693 42.0792 21.9693 42.1504 21.9345L43.8577 21.0655C44 20.996 44.1423 20.996 44.2846 21.0655L45.9919 21.9345C46.2053 22.0388 46.4899 21.9693 46.5966 21.7607C46.6322 21.6565 46.6677 21.5869 46.6322 21.4826L46.312 19.6403C46.2765 19.5012 46.3476 19.3622 46.4543 19.2579L47.7704 17.9022Z" fill="#E84918"/>
<path d="M58.8327 19.1188C58.9749 18.9798 58.9749 18.7712 58.8327 18.6322C58.7971 18.5626 58.726 18.5279 58.6192 18.5279L57.1965 18.3193C57.0897 18.3193 56.983 18.2498 56.9475 18.1455L56.3072 16.8941C56.2361 16.7203 56.0226 16.6508 55.8448 16.7551C55.7737 16.7898 55.7381 16.8246 55.7025 16.8941L55.0623 18.1455C55.0267 18.2498 54.92 18.3193 54.8133 18.3193L53.3905 18.5279C53.2126 18.5627 53.0704 18.7365 53.1059 18.9103C53.1059 18.9798 53.1415 19.0493 53.2126 19.1188L54.2442 20.0922C54.3153 20.1617 54.3509 20.266 54.3509 20.405L54.1019 21.7955C54.0663 21.9693 54.2086 22.1431 54.3864 22.1778C54.4576 22.1778 54.5287 22.1778 54.5999 22.1431L55.8804 21.4826C55.9871 21.4479 56.0938 21.4479 56.2005 21.4826L57.481 22.1431C57.6589 22.2126 57.8723 22.1778 57.9434 22.004C57.979 21.9345 57.979 21.865 57.979 21.7955L57.73 20.405C57.6944 20.3007 57.7656 20.1964 57.8367 20.0922L58.8327 19.1188Z" fill="#E84918"/>
<path d="M34.7874 19.1188C34.9297 18.9798 34.9297 18.7712 34.7874 18.6322C34.7518 18.5626 34.6807 18.5279 34.574 18.5279L33.1512 18.3193C33.0445 18.3193 32.9378 18.2498 32.9022 18.1455L32.2619 16.8941C32.1908 16.7203 31.9774 16.6508 31.7995 16.7551C31.7284 16.7898 31.6928 16.8246 31.6572 16.8941L31.017 18.1455C30.9814 18.2498 30.8747 18.3193 30.768 18.3193L29.3452 18.5279C29.1673 18.5627 29.0251 18.7365 29.0606 18.9103C29.0606 18.9798 29.0962 19.0493 29.1673 19.1188L30.1989 20.0922C30.27 20.1617 30.3056 20.266 30.3056 20.405L30.0566 21.7955C30.021 21.9693 30.1633 22.1431 30.3412 22.1778C30.4123 22.1778 30.4834 22.1778 30.5546 22.1431L31.8351 21.4826C31.9418 21.4479 32.0485 21.4479 32.1552 21.4826L33.4357 22.1431C33.6136 22.2126 33.827 22.1778 33.8981 22.004C33.9337 21.9345 33.9337 21.865 33.9337 21.7955L33.6847 20.405C33.6492 20.3007 33.7203 20.1964 33.7914 20.0922L34.7874 19.1188Z" fill="#E84918"/>
<path d="M44 77.0316C53.7106 77.0316 62.9588 73.1035 69.5392 66.1165H18.4608C25.0412 73.1035 34.2894 77.0663 44 77.0316Z" fill="#6924ED"/>
<path d="M51.4341 76.2667V66.1511H36.5303V76.2667C41.4746 77.3096 46.5255 77.3096 51.4341 76.2667Z" fill="white"/>
<path d="M17.3937 42.9652H21.1641V52.8722C21.1285 53.8803 21.1641 54.9232 21.3064 55.9313C21.6265 57.3565 22.7647 58.3993 24.9701 58.3993C27.1398 58.3993 28.1714 57.3912 28.3848 56.1746C28.5271 55.1317 28.5626 54.1237 28.5626 53.0808V42.9652H32.333V52.5594C32.333 54.7494 32.2263 56.3136 32.0129 57.2174C31.3015 60.4155 28.4915 61.5626 25.0768 61.5626C22.658 61.5626 20.346 61.215 18.8165 59.3727C17.6071 57.9127 17.3937 56.4179 17.3937 52.6984V42.9652Z" fill="#6924ED"/>
<path d="M35.3565 55.3056L39.0202 54.958C39.2336 56.1747 39.696 57.0437 40.3719 57.5999C41.8302 58.8165 44.7114 58.6427 45.8496 57.7042C46.4187 57.287 46.7745 56.6266 46.7745 55.9313C46.7745 54.8885 46.0275 54.4018 45.0315 54.0195C44.6047 53.8804 43.5732 53.6023 42.0081 53.2199C38.7001 52.4204 36.0323 51.0647 36.0323 47.7276C36.0323 45.0857 38.0954 42.6177 42.8618 42.6177C47.7348 42.6177 49.9046 44.9467 50.0469 48.1448L46.2765 48.3186C45.9563 46.3719 44.8892 45.6767 42.8618 45.6767C41.4745 45.6767 39.696 46.0938 39.696 47.4843C39.696 48.8748 41.6524 49.3266 43.7154 49.8133C47.6637 50.7171 50.616 51.8295 50.616 55.8966C50.616 58.0866 49.2643 60.068 47.2013 60.8675C44.7825 61.8756 40.0517 61.9451 37.6686 59.9289C36.3525 58.9208 35.6055 57.3566 35.3565 55.3056Z" fill="#6924ED"/>
<path d="M70.6063 61.2498H66.4802L64.844 57.1131H57.3743L55.8448 61.2498H51.8254L59.1172 42.9652H63.1011L70.6063 61.2498ZM63.6346 54.0194L61.0736 47.2409L58.5481 54.0194H63.6346Z" fill="#6924ED"/>
<path d="M19.599 33.8578V27.705C19.599 26.9055 20.2393 26.2798 21.0574 26.2798C21.7332 26.2798 22.3023 26.7317 22.4802 27.3574L23.6184 31.494C23.654 31.5635 23.7251 31.5983 23.7963 31.5983C23.8319 31.5983 23.8674 31.5635 23.903 31.494L25.0057 27.3574C25.1835 26.7317 25.7526 26.2798 26.4285 26.2798C27.2466 26.2798 27.8868 26.9055 27.8868 27.705V33.8578C27.8868 34.2749 27.5311 34.6573 27.0687 34.6573C26.6419 34.6573 26.2506 34.3097 26.2506 33.8578V28.3655C26.2506 28.3307 26.215 28.3307 26.215 28.3307C26.1795 28.3307 26.1795 28.3307 26.1795 28.3655L24.7211 34.0664C24.6144 34.414 24.2943 34.6573 23.9386 34.6573H23.5117C23.156 34.6573 22.8359 34.414 22.7292 34.0664L21.2708 28.3655C21.2708 28.3307 21.2352 28.3307 21.2352 28.3307C21.1997 28.3307 21.1997 28.3655 21.1997 28.3655V33.8578C21.1997 34.2749 20.844 34.6573 20.3816 34.6573C19.9547 34.6573 19.599 34.3097 19.599 33.8578Z" fill="#20221D"/>
<path d="M36.1035 34.6572H36.0679C35.7122 34.6572 35.3921 34.4487 35.2854 34.1358L34.7874 32.8496C34.7518 32.8149 34.7162 32.7801 34.6451 32.7801H31.4082C31.3371 32.7801 31.3015 32.8149 31.266 32.8844L30.8035 34.1706C30.6968 34.4834 30.3767 34.7267 30.021 34.7267C29.5586 34.7267 29.1673 34.3444 29.1673 33.8925C29.1673 33.7882 29.2029 33.6839 29.2385 33.5796L31.7995 27.1487C32.0129 26.6273 32.5109 26.3145 33.0444 26.3145C33.578 26.3145 34.076 26.6273 34.2894 27.1487L36.9216 33.5796C37.0994 33.9968 36.886 34.4834 36.4592 34.6572C36.3169 34.6225 36.2102 34.6572 36.1035 34.6572ZM34.076 31.1463L33.08 28.574C33.0444 28.5044 32.9733 28.4697 32.9022 28.5044C32.8666 28.5044 32.831 28.5392 32.831 28.574L31.8706 31.1463C31.8351 31.2158 31.8706 31.2854 31.9418 31.3201H31.9774H33.9337C34.0048 31.3201 34.076 31.2506 34.076 31.1811C34.1115 31.1811 34.076 31.1811 34.076 31.1463Z" fill="#20221D"/>
<path d="M38.2733 27.0097C38.2733 26.5926 38.5934 26.2797 39.0202 26.2797H41.439C41.9725 26.245 42.5416 26.3145 43.0752 26.4535C43.5732 26.5926 44 26.8707 44.3557 27.2183C44.7114 27.6007 44.996 28.0873 45.1738 28.574C45.3872 29.1997 45.4584 29.8949 45.4584 30.5554C45.4584 31.1463 45.3872 31.7721 45.2094 32.3282C45.0315 32.8844 44.7114 33.4058 44.2846 33.823C43.9289 34.1358 43.5376 34.3792 43.0752 34.4834C42.5772 34.6225 42.0437 34.692 41.5457 34.6573H39.0202C38.5934 34.6573 38.2733 34.3444 38.2733 33.9273V27.0097ZM39.9806 27.705V33.2668H41.2611C41.6168 33.2668 41.9725 33.2668 42.2927 33.1973C42.5416 33.1278 42.7906 33.0235 43.0041 32.8497C43.2175 32.6063 43.3953 32.3282 43.4665 32.0501C43.6087 31.5635 43.6443 31.0421 43.6443 30.5206C43.6799 29.9992 43.6087 29.5126 43.4665 29.0259C43.3598 28.713 43.2175 28.4349 42.9685 28.2264C42.7551 28.0178 42.4705 27.8788 42.1504 27.844C41.688 27.7745 41.19 27.7397 40.7276 27.7745L39.9806 27.705Z" fill="#20221D"/>
<path d="M46.9167 34.0664V26.8707C46.9167 26.5579 47.2013 26.2798 47.5214 26.2798H52.5368C52.928 26.2798 53.2482 26.5926 53.2482 26.975C53.2482 27.3574 52.928 27.6702 52.5368 27.6702H48.6241V29.5126H52.2166C52.6079 29.5126 52.928 29.8255 52.928 30.2078C52.928 30.5902 52.6079 30.9031 52.2166 30.9031H48.6241V33.1973H52.6791C53.0703 33.1973 53.3904 33.5102 53.3904 33.8926C53.3904 34.2749 53.0703 34.5878 52.6791 34.5878H47.4858C47.2013 34.6573 46.9167 34.3792 46.9167 34.0664Z" fill="#20221D"/>
<path d="M58.1924 33.823V27.1141C58.1924 26.6622 58.5837 26.2798 59.0461 26.2798C59.5085 26.2798 59.8998 26.6622 59.8998 27.1141V33.823C59.8998 34.2749 59.5085 34.6573 59.0461 34.6573C58.5837 34.6573 58.1924 34.2749 58.1924 33.823Z" fill="#20221D"/>
<path d="M61.6071 33.8578V27.3226C61.6071 26.7317 62.1051 26.2798 62.6742 26.2798C63.0655 26.2798 63.3856 26.4536 63.599 26.7664L66.8003 31.8764V27.0445C66.8003 26.6274 67.156 26.245 67.6184 26.245C68.0453 26.245 68.4366 26.5926 68.4366 27.0445V33.5449C68.4366 34.1359 67.9386 34.6225 67.3339 34.6225C66.9426 34.6225 66.5869 34.4139 66.3735 34.1011L63.2078 29.1997V33.8925C63.2078 34.3097 62.8521 34.692 62.3897 34.692C61.9628 34.6573 61.6071 34.3097 61.6071 33.8578Z" fill="#20221D"/>
<path d="M25.0768 62.4317C22.658 62.4317 19.9547 62.1188 18.1406 59.9289C16.7534 58.2603 16.5044 56.5918 16.5044 52.7332V42.9652C16.5044 42.4786 16.8957 42.0962 17.3937 42.0962H21.1641C21.6621 42.0962 22.0533 42.4786 22.0533 42.9652V52.8723C22.0178 53.8456 22.0533 54.8189 22.16 55.7575C22.4802 57.2175 23.8318 57.5303 24.9345 57.5303C25.966 57.5303 27.2465 57.287 27.46 56.0356C27.6022 55.0622 27.6378 54.0542 27.6022 53.0808V42.9652C27.6022 42.4786 27.9935 42.0962 28.4915 42.0962H32.2619C32.7599 42.0962 33.1511 42.4786 33.1511 42.9652V52.5594C33.1511 54.8537 33.0444 56.4179 32.831 57.3913C32.3686 59.7203 30.5901 62.4317 25.0768 62.4317ZM18.2829 43.8343V52.7332C18.2829 56.4527 18.5319 57.6694 19.5279 58.8513C20.8795 60.485 23.0137 60.6936 25.0768 60.6936C28.5626 60.6936 30.5901 59.477 31.1237 57.0437C31.3015 56.2094 31.4082 54.7146 31.4082 52.5942V43.869H29.4163V53.0808C29.4519 54.1584 29.3807 55.2708 29.2385 56.3484C28.9183 58.1908 27.3177 59.3032 24.9701 59.3032C22.5513 59.3032 20.8795 58.1213 20.4527 56.1399C20.3815 55.7922 20.3104 55.097 20.3104 52.907V43.869L18.2829 43.8343Z" fill="#6924ED"/>
<path d="M43.1108 62.4664C40.9054 62.4664 38.5934 61.9798 37.0283 60.6588C35.6055 59.4422 34.7162 57.7041 34.4673 55.4446C34.3961 54.9579 34.7518 54.5408 35.2498 54.4713C35.2498 54.4713 35.2498 54.4713 35.2854 54.4713L38.9491 54.1237C39.4115 54.0889 39.8383 54.4018 39.9095 54.8189C40.0873 55.827 40.443 56.5222 40.941 56.9741C42.0792 57.9127 44.4624 57.7041 45.2805 57.0436C45.6362 56.8003 45.8852 56.3832 45.8852 55.9313C45.8852 55.5489 45.8141 55.236 44.7114 54.8537C44.3201 54.7146 43.3242 54.4713 41.7591 54.0889C38.6645 53.3241 35.1075 51.9337 35.1075 47.7623C35.1075 45.0161 37.135 41.7833 42.8262 41.7833C47.806 41.7833 50.7583 44.1123 50.9006 48.1447C50.9006 48.6313 50.5449 49.0137 50.0469 49.0485L46.2765 49.2223C45.8141 49.2571 45.4228 48.9442 45.3517 48.4923C45.1027 47.0323 44.498 46.5804 42.7906 46.5804C41.9014 46.5804 40.5141 46.8237 40.5141 47.519C40.5141 48.249 42.2926 48.6313 43.8577 49.0137C47.8771 49.9523 51.4341 51.1689 51.4341 55.9313C51.4341 58.4688 49.869 60.7631 47.4859 61.7017C46.0986 62.2231 44.6047 62.4664 43.1108 62.4664ZM36.388 56.0703C36.6015 57.3217 37.2417 58.4689 38.2021 59.3031C40.3007 61.076 44.6758 60.9369 46.81 60.1026C48.553 59.4074 49.6912 57.7736 49.6912 55.9313C49.6912 52.6984 47.6993 51.6556 43.502 50.6823C41.19 50.1609 38.7712 49.6047 38.7712 47.519C38.7712 45.8852 40.3719 44.8423 42.8262 44.8423C45.0671 44.8423 46.4188 45.6766 46.9523 47.4495L49.0509 47.3452C48.5885 44.8423 46.4543 43.5214 42.8618 43.5214C38.4867 43.5214 36.9216 45.7114 36.9216 47.7623C36.9216 50.1608 38.4511 51.4818 42.2215 52.4203C43.8221 52.8027 44.8537 53.0808 45.3161 53.2546C45.9563 53.4632 47.6637 54.0541 47.6637 55.966C47.6637 56.9046 47.2013 57.8084 46.4188 58.3993C44.9248 59.616 41.5812 59.7898 39.7672 58.295C39.0558 57.6693 38.5578 56.8351 38.3088 55.9313L36.388 56.0703Z" fill="#6924ED"/>
<path d="M70.6063 62.1188H66.4802C66.1245 62.1188 65.7688 61.9103 65.6621 61.5626L64.2393 57.9822H57.979L56.6629 61.5626C56.5206 61.9103 56.2005 62.1188 55.8092 62.1188H51.8254C51.3274 62.1188 50.9362 61.7365 50.9362 61.2498C50.9362 61.1455 50.9717 61.0412 51.0073 60.9369L58.2991 42.6524C58.4414 42.3048 58.7615 42.0962 59.1172 42.0962H63.1011C63.4568 42.0962 63.7769 42.3048 63.9192 42.6524L71.4244 60.9369C71.6023 61.3888 71.3889 61.8755 70.9265 62.0493C70.8198 62.1188 70.713 62.1188 70.6063 62.1188ZM67.0849 60.3808H69.2547L62.4964 43.8343H59.7219L53.1415 60.3808H55.2401L56.5562 56.8003C56.6985 56.4527 57.0186 56.2441 57.4099 56.2441H64.8796C65.2353 56.2441 65.591 56.4527 65.6977 56.8003L67.0849 60.3808ZM63.6346 54.8884H58.5481C58.0501 54.8884 57.6589 54.5061 57.6589 54.0194C57.6589 53.9151 57.6944 53.8108 57.73 53.7065L60.2555 46.928C60.3978 46.5804 60.7179 46.3719 61.0736 46.3719C61.4293 46.3719 61.785 46.6152 61.8917 46.928L64.4527 53.7065C64.6306 54.1584 64.3816 54.6451 63.9192 54.8189C63.848 54.8884 63.7413 54.8884 63.6346 54.8884ZM59.7931 53.1504H62.3541L61.0736 49.7437L59.7931 53.1504Z" fill="#6924ED"/>
<path d="M44 86C19.7057 86 0 66.7421 0 43C0 19.2579 19.7057 0 44 0C68.2943 0 88 19.2579 88 43C87.9644 66.7421 68.2943 85.9652 44 86ZM44 1.73808C20.7017 1.73808 1.7785 20.2312 1.7785 43C1.7785 65.7688 20.7017 84.2619 44 84.2619C67.2983 84.2619 86.2215 65.7688 86.2215 43C86.3638 20.3703 67.7251 1.91188 44.5691 1.73808C44.3557 1.73808 44.1778 1.73808 44 1.73808Z" fill="#E84918"/>
<path d="M44 81.9677C21.9822 81.9677 4.12613 64.5174 4.12613 43C4.12613 21.4826 21.9822 4.03235 44 4.03235C66.0178 4.03235 83.8739 21.4826 83.8739 43C83.8383 64.5174 66.0178 81.9329 44 81.9677ZM44 5.77042C22.9782 5.77042 5.90463 22.456 5.90463 43C5.90463 63.5441 22.9782 80.2296 44 80.2296C65.0218 80.2296 82.0954 63.5441 82.0954 43C82.2377 22.5602 65.4131 5.90947 44.498 5.77042C44.3201 5.77042 44.1779 5.77042 44 5.77042ZM44 77.9006C24.2587 77.9006 8.28781 62.2579 8.28781 43C8.28781 23.7421 24.2587 8.09945 44 8.09945C63.7413 8.09945 79.7122 23.7421 79.7122 43C79.7122 62.2579 63.7058 77.9006 44 77.9006ZM44 9.83752C25.2547 9.83752 10.0663 24.6807 10.0663 43C10.0663 61.3193 25.2547 76.1625 44 76.1625C62.7454 76.1625 77.9337 61.3193 77.9337 43C77.9337 24.6807 62.7454 9.83752 44 9.83752Z" fill="#E84918"/>
<path d="M41.8658 22.8383C41.1188 22.8383 40.5141 22.2473 40.5141 21.5173C40.5141 21.4478 40.5141 21.3783 40.5497 21.3088L40.8343 19.675L39.6249 18.5279C39.0913 18.0064 39.0913 17.1722 39.5893 16.6507C39.8027 16.4422 40.0517 16.3031 40.3718 16.2684L42.0436 16.025L42.7906 14.5303C43.1107 13.8698 43.9288 13.6265 44.6047 13.9393C44.8537 14.0784 45.1026 14.2869 45.2094 14.5303L45.9563 16.025L47.6281 16.2684C48.3751 16.3726 48.8731 17.0331 48.7663 17.7631C48.7308 18.0412 48.5885 18.3193 48.3751 18.5279L47.1657 19.675L47.4503 21.3088C47.5925 22.0388 47.0946 22.6992 46.3476 22.8383C46.063 22.873 45.7429 22.8383 45.4939 22.6992L44 21.9345L42.506 22.6992C42.2926 22.7688 42.0792 22.8383 41.8658 22.8383ZM41.4745 17.8674L42.2215 18.5974C42.5416 18.9102 42.6839 19.3274 42.6128 19.7793L42.4349 20.7873L43.3597 20.3007C43.751 20.0921 44.2134 20.0921 44.6047 20.3007L45.5295 20.7873L45.3516 19.7793C45.2805 19.3621 45.4228 18.9102 45.7429 18.5974L46.4899 17.8674L45.4583 17.7283C45.0315 17.6588 44.6402 17.3807 44.4268 16.9983L43.9644 16.0945L43.502 16.9983C43.2886 17.3807 42.9329 17.6588 42.4705 17.7283L41.4745 17.8674Z" fill="#E84918"/>
<path d="M54.422 23.0469C53.7462 23.0469 53.177 22.4907 53.177 21.8303C53.177 21.7607 53.177 21.6912 53.177 21.6217L53.3549 20.5093L52.5368 19.7098C52.0388 19.2579 52.0388 18.4932 52.5012 18.0065C52.6791 17.8327 52.928 17.6936 53.2126 17.6589L54.3508 17.4851L54.8488 16.477C55.1334 15.886 55.8804 15.6427 56.485 15.9208C56.734 16.0251 56.9119 16.2337 57.0542 16.477L57.5521 17.4851L58.6904 17.6589C59.3662 17.7632 59.8286 18.3541 59.7219 19.0146C59.6863 19.2927 59.5441 19.536 59.3662 19.7098L58.5481 20.5093L58.7259 21.6217C58.8327 22.2822 58.4058 22.9079 57.73 23.0122C57.4454 23.0469 57.1964 23.0122 56.9474 22.9079L55.9159 22.3864L54.8844 22.9079C54.8133 23.0122 54.6354 23.0469 54.422 23.0469ZM56.0226 20.5788C56.236 20.5788 56.4139 20.6136 56.5918 20.7179L56.8763 20.8569L56.8052 20.5441C56.734 20.1617 56.8763 19.7446 57.1609 19.4665L57.4099 19.2231L57.0897 19.1884C56.6985 19.1189 56.3428 18.8755 56.1649 18.5279L56.0226 18.2498L55.8804 18.5279C55.7025 18.8755 55.3468 19.1189 54.9555 19.1884L54.6354 19.2231L54.8844 19.4665C55.169 19.7446 55.3112 20.1269 55.2401 20.5441L55.169 20.8569L55.4535 20.7179C55.6314 20.6136 55.8448 20.5788 56.0226 20.5788Z" fill="#E84918"/>
<path d="M30.3767 23.0469C29.7009 23.0469 29.1318 22.4907 29.1318 21.8303C29.1318 21.7607 29.1318 21.6912 29.1318 21.6217L29.3096 20.5093L28.4915 19.7098C27.9935 19.2579 27.9935 18.4932 28.4559 18.0065C28.6338 17.8327 28.8828 17.6936 29.1673 17.6589L30.3056 17.4851L30.8036 16.477C31.0881 15.886 31.8351 15.6427 32.4398 15.9208C32.6888 16.0251 32.8666 16.2337 33.0089 16.477L33.5069 17.4851L34.6451 17.6589C35.3209 17.7632 35.7834 18.3541 35.6766 19.0146C35.6411 19.2927 35.4988 19.536 35.3209 19.7098L34.5028 20.5093L34.6807 21.6217C34.7874 22.2822 34.3606 22.9079 33.6847 23.0122C33.4002 23.0469 33.1512 23.0122 32.9022 22.9079L31.8707 22.3864L30.8391 22.9079C30.768 23.0122 30.5901 23.0469 30.3767 23.0469ZM30.5546 19.2579L30.8036 19.5012C31.0881 19.7793 31.2304 20.1617 31.1593 20.5788L31.0881 20.8917L31.3727 20.7527C31.7284 20.5788 32.1552 20.5788 32.5109 20.7527L32.7955 20.8917L32.7243 20.5788C32.6532 20.1965 32.7955 19.7793 33.08 19.5012L33.329 19.2579L33.0089 19.2231C32.6176 19.1536 32.2619 18.9103 32.0841 18.5627L31.9418 18.2846L31.7995 18.5627C31.6217 18.9103 31.266 19.1536 30.8747 19.2231L30.5546 19.2579Z" fill="#E84918"/>
<path d="M69.5392 67.0201H18.4608C18.2118 67.0201 17.9628 66.9159 17.8205 66.7421C11.6669 60.2764 8.28778 51.7946 8.28778 42.9999C8.28778 41.3314 8.39449 39.6281 8.64348 37.9943C8.71462 37.5771 9.07032 37.2643 9.53273 37.2643H78.5028C78.9297 37.2643 79.3209 37.5771 79.3921 37.9943C79.6411 39.6628 79.7478 41.3314 79.7478 42.9999C79.7478 51.7946 76.3686 60.2764 70.215 66.7421C70.0372 66.9159 69.7882 67.0201 69.5392 67.0201ZM18.8521 65.2821H69.1479C74.8036 59.1988 77.9693 51.2384 77.9337 42.9999C77.9337 41.6442 77.8626 40.3233 77.6847 38.9676H10.3153C10.1374 40.2885 10.0663 41.6442 10.0663 42.9999C10.0307 51.2384 13.1609 59.1988 18.8521 65.2821Z" fill="#E84918"/>
</svg>
