<svg width="87" height="86" viewBox="0 0 87 86" fill="none" xmlns="http://www.w3.org/2000/svg">
<path d="M46.4891 26.4188H43.078C42.5857 26.4188 42.1989 26.0364 42.1989 25.5497V22.1779C42.1989 21.6912 42.5857 21.3088 43.078 21.3088H46.4891C46.9814 21.3088 47.3682 21.6912 47.3682 22.1779V25.5497C47.3682 26.0364 46.9814 26.4188 46.4891 26.4188ZM43.9572 24.6807H45.6099V23.0469H43.9572V24.6807Z" fill="#E84918"/>
<path d="M38.1548 35.4916H51.5178C53.8387 35.4916 55.7377 37.3687 55.7377 39.663V64.5522C55.7377 66.8465 53.8387 68.7236 51.5178 68.7236H38.1548C35.8339 68.7236 33.9349 66.8465 33.9349 64.5522V39.663C33.9349 37.3339 35.8339 35.4916 38.1548 35.4916Z" fill="#6924ED"/>
<path d="M50.92 35.4916H38.7175L40.6164 28.9216H48.9507L50.92 35.4916Z" fill="#6924ED"/>
<path d="M65.7247 42.409L60.2389 27.392C59.852 26.2797 58.7619 25.5497 57.6014 25.5497H35.6932C34.814 25.5497 34.0404 26.1754 33.9349 27.0792C33.8294 28.0178 34.5327 28.8173 35.447 28.9216C35.5174 28.9216 35.5525 28.9216 35.6229 28.9216H57.2146L62.595 43.6257C62.9115 44.4947 63.8961 44.9466 64.7752 44.6338C64.8104 44.599 64.8807 44.599 64.9159 44.5642C65.6895 44.1819 66.0412 43.2433 65.7247 42.409Z" fill="#6924ED"/>
<path d="M42.9725 18.8407H46.6297C47.5792 18.8407 48.3177 19.6055 48.3177 20.5093C48.3177 21.4478 47.544 22.1778 46.6297 22.1778H42.9725C42.023 22.1778 41.2846 21.4131 41.2846 20.5093C41.2846 19.6055 42.023 18.8407 42.9725 18.8407Z" fill="#E84918"/>
<path d="M46.4891 22.2126H43.078V25.5845H46.4891V22.2126Z" fill="#E84918"/>
<path d="M55.7377 44.7382H33.9349V59.4423H55.7377V44.7382Z" fill="#E84918"/>
<path d="M43.5 4.90137C22.2248 4.90137 4.95838 21.9693 4.95838 43C4.95838 64.0307 22.2248 81.0986 43.5 81.0986C64.7753 81.0986 82.0416 64.0307 82.0416 43C82.1823 22.1083 65.1621 5.04041 43.9923 4.90137C43.8517 4.90137 43.6758 4.90137 43.5 4.90137ZM69.3468 65.4907L62.7005 59.0598C62.2785 58.6427 61.7159 58.4341 61.1532 58.4341C59.9576 58.4341 58.9729 59.4074 58.9729 60.5893C58.9729 61.1803 59.2191 61.7017 59.6059 62.1188L66.2522 68.5497C51.975 80.9596 30.2074 79.6039 17.6532 65.4907C6.18918 52.6289 6.18918 33.371 17.6532 20.5093L22.2951 25.0978C22.7171 25.5149 23.2797 25.7235 23.8424 25.7235C25.038 25.7235 26.0227 24.7502 26.0227 23.5683C26.0227 22.9774 25.7765 22.4559 25.3897 22.0388L20.7478 17.4503C35.0251 5.04041 56.7927 6.39611 69.3468 20.5093C80.8108 33.371 80.8108 52.6289 69.3468 65.4907Z" fill="#E84918"/>
<path d="M43.5 0.869019C19.9741 0.869019 0.879143 19.7445 0.879143 43C0.879143 66.2554 19.9741 85.1309 43.5 85.1309C67.0259 85.1309 86.1209 66.2554 86.1209 43C86.2615 19.8836 67.4479 1.04283 44.0627 0.869019C43.8868 0.869019 43.6758 0.869019 43.5 0.869019ZM43.5 81.0986C22.2247 81.0986 4.95837 64.0307 4.95837 43C4.95837 21.9693 22.2247 4.90135 43.5 4.90135C64.7753 4.90135 82.0416 21.9693 82.0416 43C82.0065 64.0307 64.7753 81.0638 43.5 81.0986Z" fill="#E84918"/>
<path d="M50.92 36.3605H38.7175C38.2252 36.3605 37.8383 35.9781 37.8383 35.4914C37.8383 35.4219 37.8383 35.3176 37.8735 35.2481L39.7724 28.6782C39.8779 28.2958 40.2296 28.0525 40.6164 28.0525H48.9507C49.3375 28.0525 49.6892 28.2958 49.7947 28.6782L51.764 35.2481C51.9046 35.7 51.6233 36.1867 51.1662 36.3257C51.0958 36.3257 51.0255 36.3605 50.92 36.3605ZM39.9131 34.6224H49.7595L48.2826 29.7906H41.2846L39.9131 34.6224Z" fill="#20221D"/>
<path d="M64.1775 45.6071C63.0873 45.6071 62.1378 44.9467 61.751 43.9386L56.5817 29.7906H35.6229C34.2163 29.7906 33.0558 28.6435 33.0558 27.253C33.0558 27.1835 33.0558 27.0792 33.0558 27.0097C33.2316 25.6888 34.3569 24.7155 35.6932 24.7155H57.6015C59.1488 24.7155 60.5554 25.6888 61.0829 27.114L66.5687 42.131C67.0259 43.3824 66.4632 44.7729 65.2676 45.3638C64.9159 45.5028 64.5291 45.6071 64.1775 45.6071ZM35.6932 26.4188C35.2361 26.4188 34.8844 26.7316 34.8141 27.1488C34.7789 27.6007 35.0954 27.983 35.5526 28.0526C35.5877 28.0526 35.6229 28.0526 35.6229 28.0526H57.2146C57.6015 28.0526 57.918 28.2959 58.0586 28.6435L63.439 43.3476C63.5796 43.7648 64.072 43.9733 64.4939 43.8343C64.5291 43.8343 64.5291 43.7995 64.5643 43.7995C64.9511 43.591 65.1269 43.1391 64.9511 42.7219L59.4301 27.7049C59.1488 26.9402 58.4103 26.4535 57.6015 26.4535H35.6932V26.4188Z" fill="#20221D"/>
<path d="M46.6297 23.0817H42.9725C41.5659 23.0817 40.4054 21.9345 40.4054 20.5441C40.4054 19.1536 41.5659 18.0065 42.9725 18.0065H46.6297C48.0364 18.0065 49.1968 19.1536 49.1968 20.5441C49.1968 21.9345 48.0364 23.0817 46.6297 23.0817ZM42.9725 19.7098C42.5154 19.7098 42.1637 20.0574 42.1637 20.5093C42.1637 20.9612 42.5154 21.3088 42.9725 21.3088H46.6297C47.0869 21.3088 47.4386 20.9612 47.4386 20.5093C47.4386 20.0574 47.0869 19.7098 46.6297 19.7098H42.9725Z" fill="#E84918"/>
<path d="M36.9592 30.4858C36.4669 30.4858 36.08 30.1034 36.08 29.6168V24.6111C36.08 24.1244 36.4669 23.7421 36.9592 23.7421C37.4515 23.7421 37.8383 24.1244 37.8383 24.6111V29.6168C37.8383 30.1034 37.4515 30.4858 36.9592 30.4858Z" fill="#E84918"/>
<path d="M30.9458 28.0873H28.0974C27.6051 28.0873 27.2183 27.7049 27.2183 27.2183C27.2183 26.7316 27.6051 26.3492 28.0974 26.3492H30.9458C31.4381 26.3492 31.825 26.7316 31.825 27.2183C31.825 27.7049 31.4381 28.0873 30.9458 28.0873Z" fill="#E84918"/>
<path d="M31.6492 24.7502C31.4382 24.7502 31.2272 24.6807 31.0865 24.5416L28.5546 22.4559C28.1678 22.1431 28.1326 21.5869 28.4491 21.2393C28.7656 20.8916 29.3282 20.8221 29.6799 21.135L32.2118 23.2207C32.5986 23.5335 32.6338 24.0897 32.3173 24.4373C32.1767 24.6459 31.9305 24.7502 31.6492 24.7502Z" fill="#E84918"/>
<path d="M29.1524 33.5449C28.6601 33.5449 28.2732 33.1625 28.2732 32.6758C28.2732 32.4325 28.3787 32.1892 28.5897 32.0154L31.1217 29.9297C31.5085 29.6168 32.036 29.6516 32.3524 30.034C32.6689 30.4163 32.6338 30.9378 32.247 31.2506L29.715 33.3363C29.5744 33.4754 29.3634 33.5449 29.1524 33.5449Z" fill="#E84918"/>
<path d="M55.7377 60.3112H33.9349C33.4426 60.3112 33.0558 59.9288 33.0558 59.4422V44.7381C33.0558 44.2514 33.4426 43.869 33.9349 43.869H55.7377C56.23 43.869 56.6168 44.2514 56.6168 44.7381V59.4422C56.6168 59.9288 56.23 60.3112 55.7377 60.3112ZM34.8141 58.5731H54.8585V45.6071H34.8141V58.5731Z" fill="#E84918"/>
<path d="M43.5 81.9677C21.7324 81.9677 4.07923 64.5174 4.07923 43C4.07923 21.4826 21.7324 4.03235 43.5 4.03235C65.2676 4.03235 82.9208 21.4826 82.9208 43C82.8856 64.5174 65.2676 81.9329 43.5 81.9677ZM43.5 5.77042C22.7171 5.77042 5.83752 22.456 5.83752 43C5.83752 63.5441 22.7171 80.2296 43.5 80.2296C64.283 80.2296 81.1625 63.5441 81.1625 43C81.3032 22.5602 64.6698 5.90947 43.9923 5.77042C43.8165 5.77042 43.6758 5.77042 43.5 5.77042ZM43.5352 77.9006C24.0534 77.9353 8.19362 62.3274 8.19362 43.0348C8.19362 34.5182 11.3234 26.3145 17.0202 19.9184C17.196 19.7446 17.407 19.6403 17.6532 19.6403C17.8994 19.6403 18.1455 19.7098 18.2862 19.8836L22.9281 24.4721C23.1742 24.7155 23.4907 24.8545 23.8424 24.8545C24.5809 24.8545 25.1435 24.2636 25.1435 23.5683C25.1435 23.2207 25.0028 22.9079 24.7567 22.6645L20.1148 18.0412C19.7631 17.6936 19.7631 17.1374 20.1148 16.8246L20.15 16.7898C34.7789 4.03235 57.1091 5.45757 70.015 19.9184C81.7603 33.093 81.7603 52.8723 70.015 66.0469C69.6985 66.3945 69.1358 66.4293 68.7842 66.1164L68.749 66.0817L62.1027 59.6855C61.8565 59.4422 61.5049 59.3032 61.1532 59.3032C60.4147 59.3032 59.8521 59.8941 59.8521 60.5893C59.8521 60.937 59.9927 61.2498 60.2389 61.4931L66.8852 67.8893C67.2369 68.2369 67.2369 68.7583 66.8852 69.1059L66.8501 69.1407C60.4147 74.8416 52.1156 77.9006 43.5352 77.9006ZM17.6884 21.7955C5.83752 35.8739 7.77163 56.8003 22.0138 68.515C34.4624 78.7349 52.5024 78.7349 64.9511 68.515L59.0081 62.7446C57.8125 61.5627 57.7773 59.6508 58.9729 58.4689C60.1686 57.287 62.1027 57.2522 63.2983 58.4341L63.3335 58.4689L69.3117 64.2393C81.1625 50.1609 79.2284 29.2345 64.9863 17.5198C52.5376 7.29993 34.4976 7.29993 22.0489 17.5198L26.0226 21.4479C27.2183 22.6298 27.2183 24.5416 26.0226 25.7235C24.827 26.9054 22.8929 26.9054 21.6973 25.7235L17.6884 21.7955Z" fill="#E84918"/>
<path d="M43.5 86C19.4818 86 0 66.7421 0 43C0 19.2579 19.4818 0 43.5 0C67.5182 0 87 19.2579 87 43C86.9648 66.7421 67.5182 85.9652 43.5 86ZM43.5 1.73808C20.4664 1.73808 1.75829 20.2312 1.75829 43C1.75829 65.7688 20.4664 84.2619 43.5 84.2619C66.5335 84.2619 85.2417 65.7688 85.2417 43C85.3824 20.3703 66.9555 1.91188 44.0627 1.73808C43.8517 1.73808 43.6758 1.73808 43.5 1.73808ZM43.5 81.9677C21.7324 81.9677 4.07922 64.5174 4.07922 43C4.07922 21.4826 21.7324 4.03234 43.5 4.03234C65.2676 4.03234 82.9208 21.4826 82.9208 43C82.8856 64.5174 65.2676 81.9329 43.5 81.9677ZM43.5 5.77041C22.7171 5.77041 5.83751 22.4559 5.83751 43C5.83751 63.5441 22.7171 80.2296 43.5 80.2296C64.2829 80.2296 81.1625 63.5441 81.1625 43C81.3032 22.5602 64.6698 5.90946 43.9923 5.77041C43.8165 5.77041 43.6758 5.77041 43.5 5.77041Z" fill="#E84918"/>
<path d="M51.5178 69.5579H38.1548C35.3416 69.5579 33.0558 67.2984 33.0558 64.5174V39.6282C33.0558 36.8473 35.3416 34.5878 38.1548 34.5878H51.5178C54.331 34.5878 56.6168 36.8473 56.6168 39.6282V64.5174C56.6168 67.2984 54.331 69.5579 51.5178 69.5579ZM38.1548 36.3606C36.3262 36.3606 34.8141 37.8554 34.8141 39.663V64.5522C34.8141 66.3598 36.3262 67.8545 38.1548 67.8545H51.5178C53.3464 67.8545 54.8585 66.3598 54.8585 64.5522V39.663C54.8585 37.8554 53.3464 36.3606 51.5178 36.3606H38.1548Z" fill="#20221D"/>
</svg>
