<svg width="88" height="86" viewBox="0 0 88 86" fill="none" xmlns="http://www.w3.org/2000/svg">
<g clip-path="url(#clip0)">
<path d="M47.5734 24.7849L43.9467 30.9029C49.1733 35.2134 51.5556 41.9919 50.2045 48.527C52.5511 47.2756 55.5022 47.7623 57.2445 49.7437C59.1289 40.3233 55.3956 30.6596 47.5734 24.7849Z" fill="#E84918"/>
<path d="M52.9422 58.9556C56.0841 58.9556 58.6311 56.4655 58.6311 53.3938C58.6311 50.322 56.0841 47.8319 52.9422 47.8319C49.8003 47.8319 47.2533 50.322 47.2533 53.3938C47.2533 56.4655 49.8003 58.9556 52.9422 58.9556Z" fill="#E84918"/>
<path d="M47.2889 53.3937C47.2889 52.8375 47.36 52.2465 47.5378 51.7251H26.6667C25.7067 51.7251 24.96 52.4899 24.96 53.3937C24.96 54.2975 25.7422 55.0622 26.6667 55.0622H47.5378C47.36 54.5408 47.2889 53.9846 47.2889 53.3937Z" fill="#E84918"/>
<path d="M61.0489 51.7251H58.3467C58.7022 52.8027 58.7022 53.9846 58.3467 55.097H61.0489C62.0089 55.097 62.7556 54.3322 62.7556 53.4284C62.7556 52.5246 62.0089 51.7251 61.0489 51.7251Z" fill="#E84918"/>
<path d="M52.9422 55.0622C53.8848 55.0622 54.6489 54.3152 54.6489 53.3937C54.6489 52.4721 53.8848 51.7251 52.9422 51.7251C51.9997 51.7251 51.2356 52.4721 51.2356 53.3937C51.2356 54.3152 51.9997 55.0622 52.9422 55.0622Z" fill="#E84918"/>
<path d="M26.6666 63.7874H61.0489C62.0089 63.7874 62.7555 64.5521 62.7555 65.4559C62.7555 66.3945 61.9733 67.1245 61.0489 67.1245H26.6666C25.7066 67.1245 24.96 66.3597 24.96 65.4559C24.9244 64.5173 25.7066 63.7874 26.6666 63.7874Z" fill="#E84918"/>
<path d="M41.3511 46.6847C41.3511 45.7461 40.5689 45.0161 39.6445 45.0161H26.6667C25.7067 45.0161 24.96 45.7809 24.96 46.6847C24.96 47.5885 25.7422 48.3532 26.6667 48.3532H39.6445C40.6045 48.388 41.3511 47.6232 41.3511 46.6847Z" fill="#E9E9EA"/>
<path d="M38.7555 48.3533H27.4133V51.7251H38.7555V48.3533Z" fill="#E84918"/>
<path d="M58.3822 55.097C57.4222 58.017 54.2578 59.6508 51.2356 58.7122C49.4578 58.1561 48.1067 56.8351 47.5378 55.097H43.1645C43.1645 55.097 44.1245 62.0494 37.76 63.7874H60.3022V55.097H58.3822Z" fill="#E84918"/>
<path d="M42.4178 18.3193L48.4978 21.7607C48.8533 21.9693 48.9956 22.4212 48.7822 22.7688L42.1333 33.9968C41.92 34.3444 41.4578 34.4834 41.1022 34.2748L35.0222 30.8335C34.6667 30.6249 34.5244 30.173 34.7378 29.8254L41.3867 18.5974C41.6 18.2498 42.0622 18.1107 42.4178 18.3193Z" fill="#E84918"/>
<path d="M48.1778 21.5869L50.7378 17.2417L45.2978 14.1479L42.7378 18.4931L48.1778 21.5869Z" fill="#E84918"/>
<path d="M35.3422 31.042L33.1734 34.7267C32.96 35.0743 33.1022 35.5262 33.4578 35.7348L37.5822 38.0638C37.9378 38.2724 38.4 38.1333 38.6134 37.7857L40.7822 34.101L35.3422 31.042Z" fill="#E84918"/>
<path d="M33.9556 36.0477L31.9289 39.4544C31.68 39.8715 31.8222 40.3929 32.2489 40.6363L33.7422 41.4705C34.1689 41.7139 34.7022 41.5748 34.9511 41.1577L36.9778 37.751L33.9556 36.0477Z" fill="#E9E9EA"/>
<path d="M78.2222 17.485C77.5822 20.3702 75.52 22.734 72.7111 23.8116C83.5555 39.3152 79.4666 60.485 63.5733 71.0873C47.68 81.6895 26.0622 77.6919 15.2177 62.1535C4.3733 46.6152 8.46219 25.4801 24.3555 14.8779C35.2355 7.61272 49.3866 6.98702 60.9066 13.2789C61.76 10.4632 63.9644 8.20367 66.8444 7.33463C46.6844 -5.07523 20.0533 0.868989 7.35996 20.6135C-5.33337 40.3581 0.746632 66.3597 20.9422 78.7696C41.1377 91.1794 67.7688 85.2352 80.4622 65.4907C90.0266 50.6127 89.1377 31.4591 78.2222 17.485Z" fill="#6924ED"/>
<path d="M76.1244 21.4826C75.2 22.4907 74.0266 23.2902 72.7466 23.7768C83.5911 39.3152 79.5022 60.485 63.6089 71.0525C47.7155 81.62 26.0622 77.6572 15.2533 62.1188C4.44441 46.5804 8.49774 25.4106 24.3911 14.8431C35.2711 7.57796 49.4222 6.95225 60.9422 13.2093C61.3333 11.8884 62.0444 10.7065 62.9689 9.69841C44.16 -0.556238 20.3733 6.04845 9.84886 24.4373C-0.675588 42.8261 6.07997 66.0468 24.8889 76.3363C43.6977 86.6257 67.4844 80.0557 78.0089 61.6321C85.2266 49.0137 84.5155 33.4405 76.1244 21.4826Z" fill="#6924ED"/>
<path d="M47.5378 55.9661H26.6667C25.2445 55.9661 24.0711 54.8189 24.0711 53.4285C24.0711 52.038 25.2445 50.8909 26.6667 50.8909H47.5378C48.0356 50.8909 48.4267 51.2732 48.4267 51.7599C48.4267 51.8642 48.4267 51.9337 48.3911 52.038C48.1067 52.9766 48.1067 53.9499 48.3911 54.8537C48.5334 55.3056 48.2845 55.7922 47.8222 55.9313C47.7156 55.9313 47.6445 55.9661 47.5378 55.9661ZM26.6667 52.5942C26.2045 52.5942 25.8489 52.9418 25.8489 53.3937C25.8489 53.8456 26.2045 54.1932 26.6667 54.1932H46.4356C46.3645 53.6718 46.3645 53.1156 46.4356 52.5594H26.6667V52.5942Z" fill="#231F20"/>
<path d="M61.0489 55.9661H58.3467C57.8489 55.9661 57.4578 55.5837 57.4578 55.097C57.4578 54.9927 57.4578 54.9232 57.4934 54.8189C57.7778 53.8804 57.7778 52.907 57.4934 52.0032C57.3511 51.5513 57.6 51.0647 58.0623 50.9256C58.1334 50.8909 58.24 50.8909 58.3467 50.8909H61.0489C62.4711 50.8909 63.6445 52.038 63.6445 53.4285C63.6445 54.8189 62.5067 55.9661 61.0489 55.9661ZM59.4845 54.228H61.0845C61.5467 54.228 61.9023 53.8804 61.9023 53.4285C61.9023 52.9766 61.5467 52.6289 61.0845 52.6289H59.4845C59.5556 53.1156 59.5556 53.6718 59.4845 54.228Z" fill="#231F20"/>
<path d="M52.9422 55.9661C51.52 55.9661 50.3467 54.8189 50.3467 53.4285C50.3467 52.038 51.52 50.8909 52.9422 50.8909C54.3645 50.8909 55.5378 52.038 55.5378 53.4285C55.5734 54.8189 54.4 55.9661 52.9422 55.9661ZM52.9422 52.5942C52.48 52.5942 52.1245 52.9418 52.1245 53.3937C52.1245 53.8456 52.48 54.1932 52.9422 54.1932C53.4045 54.1932 53.76 53.8456 53.76 53.3937C53.7956 52.9418 53.4045 52.5942 52.9422 52.5942Z" fill="#231F20"/>
<path d="M61.0489 67.9935H26.6667C25.2445 67.9935 24.0711 66.8464 24.0711 65.4559C24.0711 64.0655 25.2445 62.9183 26.6667 62.9183H61.0489C62.4711 62.9183 63.6445 64.0655 63.6445 65.4559C63.6445 66.8464 62.5067 67.9935 61.0489 67.9935ZM26.6667 64.6564C26.2045 64.6564 25.8489 65.004 25.8489 65.4559C25.8489 65.9078 26.2045 66.2554 26.6667 66.2554H61.0489C61.5111 66.2554 61.8667 65.9078 61.8667 65.4559C61.8667 65.004 61.5111 64.6564 61.0489 64.6564H26.6667Z" fill="#231F20"/>
<path d="M39.6445 49.2223H26.6667C25.2445 49.2223 24.0711 48.0752 24.0711 46.6847C24.0711 45.2942 25.2445 44.1471 26.6667 44.1471H39.6445C41.0667 44.1471 42.24 45.2942 42.24 46.6847C42.24 48.0752 41.0667 49.2223 39.6445 49.2223ZM26.6667 45.8852C26.2045 45.8852 25.8489 46.2328 25.8489 46.6847C25.8489 47.1366 26.2045 47.4842 26.6667 47.4842H39.6445C40.1067 47.4842 40.4622 47.1366 40.4622 46.6847C40.4622 46.2328 40.1067 45.8852 39.6445 45.8852H26.6667Z" fill="#231F20"/>
<path d="M38.7556 52.5942H27.4133C26.9156 52.5942 26.5244 52.2118 26.5244 51.7252V48.3533C26.5244 47.8666 26.9156 47.4843 27.4133 47.4843H38.7556C39.2533 47.4843 39.6444 47.8666 39.6444 48.3533V51.7252C39.6444 52.2118 39.2178 52.5942 38.7556 52.5942ZM28.3022 50.8561H37.8667V49.2223H28.3022V50.8561Z" fill="#231F20"/>
<path d="M60.3022 64.6564H37.76C37.2622 64.6564 36.8711 64.274 36.8711 63.7874C36.8711 63.405 37.12 63.0574 37.5111 62.9531C39.7156 62.4317 41.4578 60.7283 41.9911 58.5731C42.3111 57.4955 42.3822 56.3484 42.2756 55.236C42.2045 54.7494 42.56 54.3322 43.0222 54.2627C43.0578 54.2627 43.0933 54.2627 43.1289 54.2627H47.5378C47.9289 54.2627 48.2845 54.506 48.3911 54.8536C49.1734 57.3217 51.8756 58.6774 54.4 57.9127C55.8933 57.4608 57.0311 56.3136 57.5289 54.8536C57.6356 54.506 57.9911 54.2627 58.3822 54.2627H60.3022C60.8 54.2627 61.1911 54.6451 61.1911 55.1317V63.8221C61.1911 64.2393 60.8 64.6564 60.3022 64.6564ZM41.28 62.9183H59.4134V55.966H58.9867C57.5645 59.2336 53.6889 60.7283 50.3467 59.3031C48.8178 58.6426 47.5733 57.4608 46.9333 55.966H44.1245C44.16 58.0169 43.5556 60.9369 41.28 62.9183Z" fill="#231F20"/>
<path d="M48.1778 22.456C48.0355 22.456 47.8578 22.4212 47.7511 22.3517L42.3111 19.2927C41.8844 19.0493 41.7422 18.5279 41.9911 18.1108L44.5511 13.7656C44.8 13.3485 45.3333 13.2094 45.76 13.4527L51.2 16.5118C51.6266 16.7551 51.7689 17.2765 51.52 17.6936L48.96 22.0388C48.7822 22.2822 48.4978 22.456 48.1778 22.456ZM43.9466 18.1803L47.8578 20.3703L49.5289 17.5198L45.6178 15.3299L43.9466 18.1803Z" fill="#E84918"/>
<path d="M37.9378 39.0371C37.6533 39.0371 37.3689 38.9676 37.12 38.8286L32.9956 36.4995C32.2133 36.0476 31.9289 35.0743 32.3911 34.3096L34.56 30.6248C34.8089 30.2077 35.3422 30.0687 35.7689 30.312L41.2089 33.371C41.6355 33.6143 41.7778 34.1358 41.5289 34.5529L39.36 38.2376C39.1467 38.62 38.7911 38.8633 38.3644 39.0024C38.2222 39.0371 38.08 39.0371 37.9378 39.0371ZM33.9911 35.0743L37.9022 37.2643L39.5733 34.4139L35.6622 32.2239L33.9911 35.0743Z" fill="#231F20"/>
<path d="M34.24 42.4786C33.92 42.4786 33.6356 42.4091 33.3511 42.2353L31.8578 41.401C31.0044 40.9143 30.72 39.8715 31.2178 39.0372L33.2444 35.6306C33.4933 35.2134 34.0267 35.0744 34.4533 35.3177L37.5111 37.021C37.9378 37.2644 38.08 37.7858 37.8311 38.2029L35.8044 41.6096C35.5556 42.0267 35.1644 42.3048 34.7378 42.4091C34.5244 42.4438 34.3822 42.4786 34.24 42.4786ZM34.2756 37.2296L32.7111 39.8715L34.2044 40.7058L35.7689 38.0639L34.2756 37.2296Z" fill="#231F20"/>
<path d="M57.2444 50.6476C56.9955 50.6476 56.7466 50.5433 56.5689 50.3347C55.0755 48.6662 52.6222 48.2143 50.6311 49.2919C50.2044 49.5352 49.6711 49.3614 49.4222 48.9443C49.3155 48.7704 49.28 48.5619 49.3155 48.3533C50.5955 42.0962 48.32 35.6654 43.3422 31.5635C43.0222 31.2854 42.9155 30.8335 43.1289 30.4511L46.7555 24.3331C47.0044 23.916 47.5378 23.7769 47.9644 24.0202C48 24.055 48.0355 24.055 48.0711 24.0898C56.1422 30.173 59.9822 40.1496 58.0622 49.9176C58.0266 50.3347 57.6711 50.6476 57.2444 50.6476ZM52.9422 46.9976C54.2578 46.9976 55.5378 47.38 56.6044 48.11C57.6711 39.802 54.3644 31.5287 47.7866 26.1407L45.0489 30.764C49.7066 34.9354 52.0533 41.0534 51.3066 47.2062C51.8755 47.0324 52.4089 46.9976 52.9422 46.9976Z" fill="#E84918"/>
<path d="M51.4133 18.4583C51.2711 18.4583 51.0933 18.4235 50.9867 18.354L44.1956 14.5303C43.7689 14.2869 43.6267 13.7655 43.8756 13.3484C44.1244 12.9312 44.6578 12.7922 45.0844 13.0355L51.8756 16.8593C52.3022 17.1026 52.4445 17.624 52.1956 18.0412C52.0178 18.2845 51.7333 18.4583 51.4133 18.4583Z" fill="#E84918"/>
<path d="M43.982 86C19.6975 86 -0.000226599 66.7769 -0.000226599 43.0348C-0.0357822 19.2926 19.662 0.0347615 43.9464 0C52.2309 0 60.3375 2.29426 67.3775 6.56993C67.8042 6.81326 67.9109 7.36944 67.662 7.75182C67.5553 7.92563 67.3775 8.06467 67.1642 8.1342C62.9331 9.42037 60.5509 13.8003 61.8309 17.9369C63.1109 22.0736 67.6264 24.4026 71.8575 23.1512C74.6309 22.3169 76.7642 20.0574 77.3687 17.2765C77.4753 16.7898 77.9375 16.5117 78.4353 16.616C78.6487 16.6508 78.8264 16.7898 78.9687 16.9289C84.8353 24.4026 87.9998 33.5449 87.9998 42.9652C87.9286 66.7421 68.2664 85.9652 43.982 86ZM43.982 1.73808C20.6931 1.73808 1.77755 20.2312 1.77755 43C1.77755 65.7688 20.6931 84.2619 43.982 84.2619C67.2709 84.2619 86.1864 65.7688 86.1864 43C86.222 34.553 83.5553 26.2797 78.542 19.3622C76.4442 24.2635 70.7198 26.5578 65.7064 24.5416C60.6931 22.5255 58.3464 16.8941 60.4087 11.9927C61.2975 9.9418 62.862 8.23848 64.8887 7.19564C58.5598 3.6152 51.342 1.73808 43.982 1.73808Z" fill="#6924ED"/>
<path d="M43.9822 81.9677C21.9733 81.9677 4.12445 64.5522 4.0889 43.0348C4.0889 21.5174 21.9022 4.06711 43.9111 4.03235C50.7378 4.03235 57.4222 5.73566 63.36 8.96848C63.7867 9.21182 63.9289 9.73324 63.7156 10.1504C63.68 10.2199 63.6445 10.2547 63.5733 10.3242C62.72 11.228 62.08 12.3056 61.7245 13.4875C61.5822 13.9394 61.0844 14.2175 60.6222 14.0784C60.5511 14.0437 60.48 14.0437 60.4445 14.0089C44.0533 5.07519 23.3956 10.8456 14.2933 26.8707C5.19112 42.8957 11.0578 63.0922 27.4489 71.9911C43.84 80.8901 64.4978 75.1544 73.6 59.1294C79.8578 48.1447 79.2178 34.6573 71.9644 24.2636C71.68 23.8812 71.7867 23.325 72.2133 23.0469C72.2845 23.0121 72.32 22.9774 72.3911 22.9426C73.5645 22.4907 74.5956 21.7955 75.4489 20.8569C75.7689 20.5093 76.3378 20.4745 76.6933 20.7874C76.7289 20.8222 76.8 20.8917 76.8356 20.9264C89.28 38.6548 84.6578 62.9184 66.4889 75.0849C59.8756 79.6039 52.0178 81.9677 43.9822 81.9677ZM43.9822 5.77042C22.9333 5.73566 5.86668 22.4212 5.83112 43C5.79556 63.5788 22.8622 80.2644 43.9111 80.2991C64.96 80.3339 82.0267 63.6484 82.0622 43.0695C82.0622 35.9087 79.9644 28.8868 75.9822 22.8383C75.3778 23.3598 74.7378 23.7769 74.0622 24.1593C84.6933 40.3929 79.8578 61.9798 63.2533 72.3735C46.6489 82.7672 24.5689 78.0396 13.9378 61.806C3.30668 45.5724 8.14223 23.9855 24.7467 13.5918C35.4845 6.84803 49.1022 6.25709 60.4445 11.9927C60.7645 11.2975 61.1556 10.6023 61.6178 9.97657C56.1422 7.23041 50.1333 5.77042 43.9822 5.77042Z" fill="#6924ED"/>
<path d="M69.5111 5.90942C64 5.90942 59.52 10.2894 59.52 15.6774C59.52 21.0654 64 25.4454 69.5111 25.4454C75.0222 25.4454 79.4666 21.0654 79.5022 15.6774C79.5022 10.2894 75.0222 5.90942 69.5111 5.90942Z" fill="#489C15"/>
<path d="M68.3377 19.0493C68.0889 19.0493 67.8755 18.945 67.6977 18.806L64.8178 15.9903C64.4622 15.6427 64.4622 15.0865 64.8178 14.7736C65.1733 14.426 65.7066 14.426 66.0622 14.7736L68.3022 16.9636L72.8533 12.5141C73.2089 12.1665 73.7777 12.1665 74.0977 12.5141C74.4533 12.8617 74.4533 13.4179 74.0977 13.7308L68.9422 18.7712C68.8 18.9798 68.5866 19.0493 68.3377 19.0493Z" fill="white"/>
<path d="M41.4578 35.2482C41.1733 35.2482 40.8889 35.1787 40.64 35.0396L34.56 31.5982C33.7778 31.1463 33.4933 30.173 33.9555 29.4083L40.6044 18.1803C41.0666 17.4155 42.0622 17.1375 42.8444 17.5894L48.9244 21.0307C49.7066 21.4826 49.9911 22.456 49.5289 23.2207L42.88 34.4487C42.6666 34.8311 42.3111 35.0744 41.8844 35.2134C41.7422 35.2482 41.6 35.2482 41.4578 35.2482ZM35.5555 30.173L41.4222 33.4754L47.9289 22.456L42.0622 19.1536L35.5555 30.173Z" fill="#231F20"/>
<path d="M52.9422 59.8247C49.3156 59.8247 46.3644 56.9395 46.3644 53.3938C46.3644 49.8481 49.3156 46.9629 52.9422 46.9629C56.5689 46.9629 59.52 49.8481 59.52 53.3938C59.52 56.9395 56.5689 59.8247 52.9422 59.8247ZM52.9422 48.7357C50.3111 48.7357 48.1422 50.8214 48.1422 53.4285C48.1422 56.0356 50.2756 58.1213 52.9422 58.1213C55.5733 58.1213 57.7422 56.0356 57.7422 53.4285C57.7422 50.8214 55.6089 48.7357 52.9422 48.7357Z" fill="#231F20"/>
</g>
<defs>
<clipPath id="clip0">
<rect width="88" height="86" fill="white"/>
</clipPath>
</defs>
</svg>
