<svg width="87" height="86" viewBox="0 0 87 86" fill="none" xmlns="http://www.w3.org/2000/svg">
<g clip-path="url(#clip0)">
<path d="M45.2766 40.2539C29.3753 52.7681 24.7315 64.0308 23.5002 70.705C25.013 71.7826 26.6312 72.7212 28.2847 73.5207C28.1088 60.8327 35.5669 49.8481 45.2766 40.2539Z" fill="#9CE59C"/>
<path d="M66.7012 4.48425C66.2438 3.51093 65.0829 3.05903 64.0979 3.51093C63.8516 3.61521 63.6757 3.75426 63.4998 3.92807C59.9818 7.54327 51.5034 15.5732 37.0093 25.515C18.6102 38.1334 24.837 54.5408 27.5459 59.8594C30.7473 54.1237 36.165 47.38 45.2766 40.2191C38.6276 46.789 33.034 54.0542 30.2196 62.0493C34.793 62.9879 48.0206 64.2046 59.7356 51.2037C76.833 32.2587 69.9026 11.6104 66.7012 4.48425Z" fill="#489C15"/>
<path d="M68.3898 8.82935C69.1286 10.9846 69.6915 13.2093 70.1136 15.434C85.4873 29.9296 86.0501 53.9846 71.3801 69.1754C56.7101 84.3661 32.3656 84.9223 16.9919 70.4268C1.61828 55.9312 1.0554 31.8415 15.7254 16.6507C26.9478 5.04035 44.2916 1.66848 59.1375 8.16888C60.3688 7.02175 61.4242 6.04843 62.2685 5.17939C41.0902 -5.11002 15.444 3.51084 5.03073 24.4373C-5.38253 45.3637 3.34209 70.7049 24.5204 80.9943C45.6987 91.2837 71.3449 82.6628 81.7582 61.7364C90.9753 43.2433 85.3114 20.8568 68.3898 8.82935Z" fill="#6924ED"/>
<path d="M70.0785 15.4341C70.5006 17.6936 70.7469 19.9531 70.7821 22.2474C82.3563 37.1253 79.5419 58.4689 64.4849 69.9054C49.4278 81.342 27.8625 78.5263 16.2883 63.6484C4.71413 48.7704 7.52853 27.4269 22.5855 15.9903C32.0489 8.79468 44.6082 6.98708 55.7602 11.1585C56.9915 10.0809 58.1173 9.07277 59.1375 8.16897C39.6126 -0.41712 16.7809 8.27326 8.0914 27.5311C-0.598042 46.789 8.19694 69.384 27.6866 77.9353C47.1763 86.4867 70.0433 77.8311 78.6976 58.5732C85.3817 43.8343 81.9341 26.5578 70.0785 15.4341Z" fill="#6924ED"/>
<path d="M45.2766 41.1229C44.784 41.1229 44.3971 40.7405 44.3971 40.2539C44.3971 40.0106 44.5026 39.802 44.6433 39.6282C58.1876 26.245 59.4541 17.7632 59.4541 17.6937C59.5245 17.207 59.9466 16.8941 60.4391 16.9289C60.9317 16.9984 61.2483 17.4156 61.2131 17.9022C61.1779 18.2846 59.8763 27.0445 45.9098 40.8448C45.7339 41.0186 45.5228 41.1229 45.2766 41.1229Z" fill="#20221D"/>
<path d="M35.3558 52.8376C34.8633 52.8376 34.4763 52.4552 34.4763 51.9685C34.4763 51.6557 34.6171 51.3776 34.8985 51.2385C35.1799 51.0647 41.5123 47.241 51.3275 47.241C51.8201 47.241 52.207 47.6233 52.207 48.11C52.207 48.5967 51.8201 48.979 51.3275 48.979C42.0049 48.979 35.8835 52.6638 35.8132 52.6985C35.7076 52.7681 35.5317 52.8376 35.3558 52.8376Z" fill="#20221D"/>
<path d="M49.0057 37.1948C48.5131 37.1948 48.1262 36.8125 48.1262 36.3258C48.1262 35.9782 48.3372 35.6653 48.6539 35.5263C48.8649 35.422 53.8605 33.1973 61.3186 33.6144C61.8112 33.6492 62.163 34.0316 62.163 34.5182C62.1278 35.0049 61.7408 35.3525 61.2483 35.3525C54.2475 34.9701 49.463 37.0906 49.4278 37.1253C49.2871 37.1948 49.1464 37.1948 49.0057 37.1948Z" fill="#20221D"/>
<path d="M57.8007 25.1673C57.3082 25.1673 56.9212 24.7849 56.9212 24.2983C56.9212 24.055 57.0267 23.8116 57.2378 23.6378C57.3433 23.5683 59.8059 21.5521 64.6608 21.5521C65.1533 21.5521 65.5402 21.9345 65.5402 22.4212C65.5402 22.9078 65.1533 23.2902 64.6608 23.2902C60.4392 23.2902 58.3635 24.9588 58.3635 24.9935C58.2228 25.0978 58.0117 25.1673 57.8007 25.1673Z" fill="#20221D"/>
<path d="M51.9608 33.7882C51.4683 33.7882 51.0813 33.4059 51.0813 32.9192C51.0813 32.8844 51.0813 32.8497 51.0813 32.8149C51.3979 29.6864 50.7295 26.5578 49.1112 23.8465C48.8298 23.4293 48.9705 22.9079 49.3575 22.6298C49.7445 22.3865 50.3073 22.4908 50.5536 22.8731C52.4181 25.9321 53.1921 29.4778 52.8051 33.0235C52.7699 33.4406 52.4181 33.7882 51.9608 33.7882Z" fill="#20221D"/>
<path d="M39.0498 47.6233C38.5572 47.6233 38.1703 47.2409 38.1703 46.7543C38.1703 46.6848 38.1703 46.6152 38.2054 46.5805C39.9644 38.8982 36.3057 34.2401 36.2705 34.2054C35.9539 33.823 36.0243 33.2668 36.4113 32.9887C36.7982 32.7106 37.3611 32.7454 37.6426 33.1278C37.8185 33.3363 41.829 38.481 39.8941 46.9629C39.8237 47.3452 39.4367 47.6233 39.0498 47.6233Z" fill="#20221D"/>
<path d="M43.5176 86C19.4897 86 0 66.7421 0 43C0 19.2579 19.4897 0 43.5176 0C50.1666 0 56.7101 1.49475 62.6555 4.37995C63.0776 4.58852 63.2535 5.10994 63.0425 5.52708C63.0073 5.5966 62.9369 5.70089 62.8666 5.77041C61.8815 6.74374 60.8261 7.75182 59.7004 8.79466C59.4541 9.038 59.0671 9.10752 58.7505 8.96847C39.7533 0.625707 17.4844 9.14228 9.07643 27.9135C6.96563 32.6758 5.83987 37.7858 5.83987 43C5.83987 63.5441 22.7262 80.2296 43.5176 80.2296C64.3089 80.2296 81.1601 63.5788 81.1953 43C81.2305 32.8149 76.9737 23.0469 69.4804 16.0598C69.3397 15.9208 69.2693 15.7817 69.2341 15.5732C68.8472 13.3832 68.2843 11.1932 67.5455 9.07276C67.4048 8.62086 67.651 8.1342 68.1084 7.96039C68.3898 7.8561 68.6713 7.92563 68.8823 8.06467C88.4072 21.8998 92.8399 48.7704 78.8383 68.0283C70.6765 79.3258 57.5192 86 43.5176 86ZM43.5176 1.73808C20.4395 1.73808 1.68864 20.1964 1.65346 43C1.61828 65.8036 20.2988 84.3315 43.4121 84.3662C66.4901 84.401 85.241 65.9426 85.2762 43.1043C85.2762 30.7292 79.6826 19.0146 70.0433 11.1584C70.3951 12.4446 70.6765 13.696 70.9228 14.9822C78.6624 22.2821 82.9895 32.4325 82.9543 43C82.9543 64.5174 65.294 81.9677 43.5176 81.9677C21.7412 81.9677 4.08087 64.5174 4.08087 43C4.08087 21.4826 21.7412 4.03234 43.5176 4.03234C48.8298 4.03234 54.0716 5.07518 58.9616 7.12611C59.5948 6.53517 60.1929 5.97898 60.7558 5.4228C55.3381 2.98949 49.463 1.73808 43.5176 1.73808Z" fill="#6924ED"/>
<path d="M28.2847 74.4244C28.1439 74.4244 28.0032 74.3896 27.8977 74.3201C26.1739 73.4858 24.5556 72.5125 23.0077 71.4001C22.7262 71.1916 22.5855 70.8787 22.6559 70.5311C24.0279 63.266 28.9531 51.9685 44.7489 39.5586C45.1359 39.2457 45.6987 39.3153 45.9802 39.6976C46.2616 40.0453 46.2264 40.5319 45.9098 40.8448C34.5115 52.1075 29.0234 62.8141 29.1642 73.5206C29.1642 74.0073 28.7772 74.3896 28.2847 74.4244Z" fill="#3E7F14"/>
<path d="M24.4501 70.3226C25.3999 70.9831 26.385 71.574 27.4052 72.1302C27.6163 65.1431 30.114 58.1908 34.8985 51.0995C28.2143 58.7123 25.4703 65.4212 24.4501 70.3226Z" fill="#3E7F14"/>
<path d="M43.5176 81.9677C21.7412 81.9677 4.08087 64.5174 4.08087 43C4.08087 21.4826 21.7412 4.03235 43.5176 4.03235C49.0057 4.03235 54.4585 5.14472 59.4893 7.36946C59.9466 7.57802 60.1225 8.06469 59.9466 8.51659C59.9114 8.62087 59.8411 8.72515 59.7355 8.79468C58.6801 9.768 57.5192 10.8108 56.3583 11.8189C56.112 12.0275 55.7602 12.097 55.4788 11.9927C38.0999 5.45757 18.6805 14.0437 12.1019 31.1811C5.52325 48.3185 14.2127 67.5069 31.5564 74.0073C48.9001 80.5077 68.3194 71.9216 74.8981 54.7842C79.0493 44.0081 77.2551 31.8416 70.1136 22.6993C70.0081 22.5602 69.9377 22.3864 69.9377 22.1779C69.8674 19.9531 69.6211 17.7284 69.2341 15.5037C69.1638 15.017 69.4804 14.5651 69.9377 14.4956C70.2192 14.4608 70.5006 14.5303 70.7117 14.7389C78.5568 22.0736 82.9895 32.2587 82.9543 42.9305C82.9191 64.5174 65.294 81.9329 43.5176 81.9677ZM43.5176 5.77042C22.7262 5.77042 5.83987 22.456 5.83987 43C5.83987 63.5441 22.7262 80.2296 43.5176 80.2296C64.3089 80.2296 81.1953 63.5441 81.1953 43C81.2305 33.7187 77.7125 24.785 71.3801 17.937C71.556 19.2579 71.6615 20.5788 71.6967 21.8998C76.3757 27.9483 78.9086 35.3525 78.8734 43C78.8734 62.2579 63.0425 77.8658 43.5528 77.8658C24.0631 77.8658 8.26728 62.2231 8.26728 42.9653C8.26728 23.7074 24.0983 8.09945 43.5879 8.09945C47.6688 8.09945 51.7497 8.79468 55.5843 10.1851C56.2527 9.59419 56.886 9.03801 57.5544 8.44706C53.0865 6.67422 48.3021 5.77042 43.5176 5.77042Z" fill="#6924ED"/>
<path d="M35.778 63.4745C33.8431 63.4745 31.9082 63.3007 30.0437 62.9183C29.5512 62.814 29.2697 62.3621 29.3753 61.8755C29.3753 61.8407 29.4104 61.8059 29.4104 61.7712C30.7473 58.0517 32.5766 54.5408 34.793 51.2732C32.3304 54.0541 30.1844 57.0784 28.355 60.3112C28.1791 60.5893 27.8977 60.7631 27.5811 60.7631C27.2645 60.7631 26.9478 60.5893 26.8071 60.2764C24.2742 55.2708 17.4141 37.9595 36.552 24.8197C50.7647 15.0517 59.1727 7.16083 62.9017 3.33706C63.9923 2.22469 65.7865 2.18993 66.9123 3.26754C67.1585 3.51087 67.4048 3.82372 67.5455 4.13657C70.2544 10.2198 71.6967 16.755 71.7671 23.4292C71.7671 33.9272 67.9325 43.4866 60.4392 51.7946C51.7145 61.4236 42.2511 63.4745 35.778 63.4745ZM31.3805 61.3888C36.7982 62.2578 48.478 62.3621 59.0671 50.6127C75.6017 32.2587 69.3397 12.4793 65.892 4.8318C65.7513 4.51895 65.4347 4.27562 65.0829 4.2061C64.7311 4.13657 64.3441 4.27562 64.0979 4.51895C60.2984 8.41224 51.8201 16.3726 37.5018 26.2449C29.8678 31.5287 25.7166 37.9943 25.2592 45.5028C24.9426 50.6127 26.385 55.1317 27.6514 58.0169C31.4861 51.6556 37.2556 45.468 44.7489 39.5586C45.1359 39.2457 45.6988 39.3152 45.9802 39.6976C46.2616 40.0452 46.2265 40.5319 45.9098 40.8447C38.6979 47.9709 33.9487 54.6798 31.3805 61.3888Z" fill="#20221D"/>
</g>
<defs>
<clipPath id="clip0">
<rect width="87" height="86" fill="white"/>
</clipPath>
</defs>
</svg>
