<svg width="25" height="24" viewBox="0 0 25 24" fill="none" xmlns="http://www.w3.org/2000/svg">
<path d="M17.1875 0H7.8125C3.49844 0 0 3.3585 0 7.5V16.5C0 20.6415 3.49844 24 7.8125 24H17.1875C21.5016 24 25 20.6415 25 16.5V7.5C25 3.3585 21.5016 0 17.1875 0ZM22.6562 16.5C22.6562 19.395 20.2031 21.75 17.1875 21.75H7.8125C4.79688 21.75 2.34375 19.395 2.34375 16.5V7.5C2.34375 4.605 4.79688 2.25 7.8125 2.25H17.1875C20.2031 2.25 22.6562 4.605 22.6562 7.5V16.5Z" fill="#4A4A4A"/>
<path d="M12.5 6C9.04844 6 6.25 8.6865 6.25 12C6.25 15.3135 9.04844 18 12.5 18C15.9516 18 18.75 15.3135 18.75 12C18.75 8.6865 15.9516 6 12.5 6ZM12.5 15.75C10.3469 15.75 8.59375 14.067 8.59375 12C8.59375 9.9315 10.3469 8.25 12.5 8.25C14.6531 8.25 16.4062 9.9315 16.4062 12C16.4062 14.067 14.6531 15.75 12.5 15.75Z" fill="#4A4A4A"/>
<path d="M19.2187 6.34978C19.6786 6.34978 20.0515 5.99183 20.0515 5.55028C20.0515 5.10873 19.6786 4.75078 19.2187 4.75078C18.7587 4.75078 18.3859 5.10873 18.3859 5.55028C18.3859 5.99183 18.7587 6.34978 19.2187 6.34978Z" fill="#4A4A4A"/>
</svg>
