<svg width="233" height="54" viewBox="0 0 233 54" fill="none" xmlns="http://www.w3.org/2000/svg">
<g clip-path="url(#clip0)">
<path d="M71.7579 34.2829V20.7829H74.2091V32.5776H77.4417V34.2829H71.7579Z" fill="#BCC1C2"/>
<path d="M86.2871 34.4605C84.9016 34.4605 83.907 34.0875 83.3031 33.3237C82.6992 32.5776 82.3972 31.4586 82.3972 30.002V25.0105C82.3972 24.3 82.4683 23.6783 82.5926 23.1454C82.7347 22.6125 82.9478 22.1684 83.2498 21.7777C83.5517 21.3869 83.9603 21.1027 84.4576 20.9073C84.9549 20.7119 85.5766 20.623 86.2871 20.623C87.6725 20.623 88.6672 20.9961 89.2711 21.7421C89.875 22.4882 90.1769 23.5717 90.1769 25.0105V30.002C90.1769 30.7125 90.1059 31.3342 89.9638 31.8671C89.8217 32.4 89.6085 32.8619 89.3066 33.2526C89.0046 33.6434 88.5961 33.9454 88.0988 34.1408C87.6014 34.3362 86.9975 34.4605 86.2871 34.4605ZM85.6654 32.5244C85.843 32.5954 86.0384 32.6309 86.2871 32.6309C86.518 32.6309 86.7311 32.5954 86.891 32.5244C87.0508 32.4533 87.1929 32.3645 87.2995 32.2401C87.4061 32.1336 87.4771 31.9737 87.5304 31.7961C87.5837 31.6184 87.6192 31.423 87.637 31.2454C87.6547 31.0678 87.6725 30.8369 87.6725 30.5882V24.4599C87.6725 24.1401 87.6547 23.8559 87.6192 23.6428C87.5837 23.4296 87.5304 23.2165 87.4238 23.0211C87.335 22.8257 87.1929 22.6836 86.9975 22.5948C86.8022 22.5059 86.5713 22.4527 86.2693 22.4527C85.9674 22.4527 85.7365 22.5059 85.5411 22.5948C85.3457 22.6836 85.2036 22.8257 85.1148 23.0211C85.026 23.2165 84.9549 23.4119 84.9194 23.6428C84.8839 23.8559 84.8661 24.1401 84.8661 24.4599V30.5882C84.8661 30.8369 84.8839 31.0678 84.9016 31.2454C84.9194 31.423 84.9549 31.6184 85.0082 31.7961C85.0615 31.9737 85.1503 32.1336 85.2391 32.2401C85.3634 32.3645 85.5055 32.4533 85.6654 32.5244Z" fill="#BCC1C2"/>
<path d="M95.9851 34.2829V20.7829H97.6725L100.976 28.4388V20.7829H103.019V34.2829H101.402L98.0632 26.2362V34.2829H95.9851Z" fill="#BCC1C2"/>
<path d="M109.04 34.2829V20.7829H114.688V22.5237H111.491V26.3961H114.031V28.1368H111.509V32.5954H114.742V34.3007H109.04V34.2829Z" fill="#BCC1C2"/>
<path d="M131.633 34.4605C129.253 34.4605 128.01 33.0928 127.885 30.3395L130.035 29.8954C130.088 31.6895 130.603 32.5776 131.562 32.5776C131.935 32.5776 132.219 32.4711 132.397 32.2401C132.574 32.0092 132.663 31.7072 132.663 31.3165C132.663 30.9434 132.592 30.6059 132.468 30.2862C132.326 29.9665 132.166 29.7178 131.988 29.5224C131.811 29.327 131.562 29.0783 131.225 28.7941L129.448 27.2487C128.933 26.7869 128.543 26.325 128.276 25.8276C128.027 25.3303 127.885 24.7263 127.885 23.9803C127.885 22.9323 128.187 22.1151 128.809 21.529C129.431 20.9428 130.265 20.6586 131.349 20.6408C131.846 20.6408 132.273 20.6941 132.663 20.8184C133.036 20.9428 133.356 21.1204 133.605 21.3336C133.853 21.5467 134.066 21.8132 134.226 22.1329C134.386 22.4526 134.511 22.7901 134.599 23.1276C134.688 23.4651 134.741 23.8559 134.777 24.2823L132.681 24.6908C132.663 24.4244 132.646 24.1757 132.628 23.9803C132.61 23.7849 132.557 23.5717 132.503 23.3763C132.45 23.1632 132.361 23.0033 132.273 22.879C132.184 22.7546 132.042 22.648 131.882 22.577C131.722 22.5059 131.544 22.4704 131.331 22.4882C130.976 22.5059 130.692 22.6303 130.496 22.8434C130.301 23.0566 130.212 23.3586 130.212 23.7316C130.212 24.1579 130.301 24.5309 130.461 24.7974C130.638 25.0816 130.905 25.3836 131.26 25.7033L133.019 27.2309C133.32 27.4974 133.569 27.7638 133.782 28.0125C133.995 28.2612 134.209 28.5454 134.404 28.8651C134.599 29.1849 134.759 29.5401 134.848 29.9309C134.955 30.3217 135.008 30.7303 135.008 31.1566C135.008 32.1336 134.688 32.9329 134.084 33.5546C133.463 34.1408 132.646 34.4605 131.633 34.4605Z" fill="#BCC1C2"/>
<path d="M141.775 34.2829V22.5947H139.519V20.7829H146.429V22.5947H144.226V34.2829H141.775Z" fill="#BCC1C2"/>
<path d="M150.745 34.2829L153.498 20.7829H156.056L158.791 34.2829H156.5L155.949 31.1388H153.605L153.054 34.2829H150.745ZM153.871 29.5579H155.683L154.777 24.0158L153.871 29.5579Z" fill="#BCC1C2"/>
<path d="M164.12 34.2829V20.7829H167.21C167.921 20.7829 168.524 20.8362 169.04 20.9605C169.555 21.0849 169.999 21.2803 170.372 21.5467C170.745 21.8132 171.029 22.1862 171.224 22.6658C171.42 23.1276 171.508 23.7138 171.508 24.3888C171.508 25.2414 171.384 25.9342 171.135 26.4671C170.887 27 170.461 27.3908 169.892 27.6395L171.757 34.3007H169.27L167.654 28.1368H166.571V34.2829H164.12ZM166.571 26.5559H167.157C167.885 26.5559 168.4 26.3961 168.702 26.0941C169.004 25.7921 169.164 25.2592 169.164 24.5132C169.164 23.7849 169.04 23.2697 168.773 22.9678C168.507 22.648 168.027 22.5059 167.299 22.5059H166.553V26.5559H166.571Z" fill="#BCC1C2"/>
<path d="M185.469 34.2829V20.7829H187.92V26.4316H190.674V20.7829H193.125V34.2829H190.674V28.1724H187.92V34.2829H185.469Z" fill="#BCC1C2"/>
<path d="M199.181 34.2829V20.7829H204.83V22.5237H201.633V26.3961H204.155V28.1368H201.633V32.5954H204.865V34.3007H199.181V34.2829Z" fill="#BCC1C2"/>
<path d="M210.265 34.2829L210.478 20.7829H213L214.954 30.2684L216.961 20.7829H219.43L219.661 34.2829H217.796L217.636 24.975L215.682 34.2829H214.244L212.272 24.9572L212.13 34.2829H210.265Z" fill="#BCC1C2"/>
<path d="M225.664 34.2829V20.7829H229.554C231.863 20.7829 233 22.0618 233 24.6197C233 25.8809 232.68 26.7869 232.059 27.373C231.437 27.9592 230.549 28.2434 229.394 28.2434H228.116V34.2829H225.664ZM228.133 26.5204H228.915C229.608 26.5204 230.087 26.3783 230.318 26.1118C230.549 25.8454 230.691 25.3303 230.691 24.602C230.691 24.1757 230.673 23.8559 230.638 23.625C230.602 23.3941 230.531 23.1809 230.407 23.0033C230.282 22.8079 230.105 22.6836 229.874 22.6125C229.643 22.5415 229.323 22.5059 228.915 22.5059H228.116V26.5204H228.133Z" fill="#BCC1C2"/>
<path d="M74.2091 47.1443C73.3387 47.1443 72.7171 46.9667 72.3263 46.6292C71.9356 46.2739 71.7579 45.7766 71.7579 45.1016V43.1654C71.7579 42.8279 71.7935 42.5259 71.8823 42.295C71.9711 42.0463 72.1132 41.8331 72.3086 41.6555C72.5039 41.4779 72.7704 41.3358 73.1256 41.247C73.4631 41.1581 73.8893 41.1049 74.3867 41.1049C75.2925 41.1049 75.9497 41.247 76.3405 41.5312C76.7312 41.8154 76.9266 42.2595 76.9266 42.8279V43.1121H75.3281V42.8101C75.3281 42.6858 75.3281 42.5792 75.3103 42.4904C75.2925 42.4016 75.2748 42.3305 75.2392 42.2417C75.2037 42.1529 75.1504 42.0996 75.0794 42.0463C75.0083 41.993 74.9195 41.9575 74.813 41.9397C74.7064 41.9042 74.5643 41.9042 74.3867 41.9042C74.2623 41.9042 74.1558 41.922 74.0492 41.9397C73.9426 41.9575 73.8716 41.993 73.8005 42.0108C73.7295 42.0463 73.6762 42.0818 73.6229 42.1351C73.5696 42.1884 73.5341 42.2417 73.5163 42.295C73.4986 42.3483 73.4808 42.4193 73.4631 42.4904C73.4453 42.5792 73.4453 42.6503 73.4453 42.7035C73.4453 42.7568 73.4453 42.8456 73.4453 42.9345V45.3147C73.4453 45.67 73.5164 45.9364 73.6584 46.0963C73.8005 46.2562 74.0492 46.345 74.44 46.345C74.6353 46.345 74.813 46.3272 74.9373 46.2739C75.0794 46.2206 75.186 46.1496 75.257 46.0608C75.3281 45.9542 75.3813 45.8476 75.4169 45.7233C75.4524 45.5989 75.4701 45.4391 75.4701 45.2614V44.7641H74.4755V44.0713H76.9799V47.0733H75.8964L75.7721 46.4693C75.4879 46.9134 74.9728 47.1443 74.2091 47.1443Z" fill="#414643"/>
<path d="M79.9462 47.0724V41.1572H82.042C82.5216 41.1572 82.9479 41.175 83.2854 41.2283C83.6228 41.2816 83.9425 41.3704 84.1912 41.477C84.4399 41.6013 84.6352 41.7612 84.7596 41.9566C84.8839 42.1697 84.955 42.4184 84.955 42.7026C84.955 43.0757 84.8661 43.3776 84.7063 43.6085C84.5287 43.8395 84.2445 44.0171 83.8537 44.1237L85.1326 47.0368H83.463L82.3618 44.3368H81.6158V47.0724H79.9462ZM81.6158 43.6796H82.0243C82.5216 43.6796 82.8768 43.6085 83.0722 43.4842C83.2854 43.3421 83.3919 43.1112 83.3919 42.7914C83.3919 42.4717 83.3031 42.2408 83.1255 42.1164C82.9479 41.9743 82.6104 41.9033 82.1308 41.9033H81.6335V43.6796H81.6158Z" fill="#414643"/>
<path d="M90.4256 47.1434C89.4843 47.1434 88.8093 46.9835 88.4008 46.646C87.9923 46.3085 87.7791 45.8289 87.7791 45.1895V43.0046C87.7791 42.6849 87.8324 42.4184 87.9212 42.1875C88.01 41.9566 88.1699 41.7612 88.3653 41.5836C88.5784 41.4237 88.8448 41.2816 89.1823 41.2105C89.5198 41.1217 89.9461 41.0862 90.4256 41.0862C91.367 41.0862 92.042 41.246 92.4505 41.5658C92.859 41.8855 93.0722 42.3651 93.0722 43.0046V45.1895C93.0722 45.4914 93.0189 45.7757 92.9301 46.0066C92.8413 46.2375 92.6814 46.4507 92.486 46.6105C92.2729 46.7882 92.0065 46.9125 91.669 47.0013C91.3137 47.0901 90.9052 47.1434 90.4256 47.1434ZM90.0171 46.2908C90.1415 46.3263 90.2658 46.3441 90.4434 46.3441C90.6033 46.3441 90.7454 46.3263 90.8519 46.2908C90.9585 46.2553 91.0651 46.2197 91.1184 46.1664C91.1894 46.1132 91.2427 46.0599 91.2782 45.971C91.3138 45.8822 91.3493 45.8112 91.3493 45.7224C91.367 45.6335 91.367 45.5447 91.367 45.4382V42.7559C91.367 42.6138 91.3493 42.4895 91.3315 42.4007C91.3137 42.3118 91.2605 42.223 91.2072 42.1342C91.1361 42.0454 91.0473 41.9921 90.923 41.9388C90.7986 41.9033 90.621 41.8678 90.4256 41.8678C90.2303 41.8678 90.0526 41.8855 89.9283 41.9388C89.804 41.9743 89.6974 42.0454 89.6441 42.1342C89.5731 42.223 89.5375 42.3118 89.5198 42.4007C89.502 42.4895 89.4843 42.6138 89.4843 42.7559V45.4382C89.4843 45.5447 89.4843 45.6513 89.502 45.7224C89.5198 45.8112 89.5375 45.8822 89.5731 45.971C89.6086 46.0599 89.6619 46.1132 89.7329 46.1664C89.804 46.2197 89.8928 46.2553 90.0171 46.2908Z" fill="#414643"/>
<path d="M96.9975 47.0724L95.6832 41.1572H97.0863L97.8323 44.9586L98.8092 41.1572H99.9282L100.923 44.9763L101.669 41.1572H103.054L101.775 47.0724H100.443L99.4131 43.1289L98.383 47.0724H96.9975Z" fill="#414643"/>
<path d="M105.843 47.0724V41.1572H106.997L109.253 44.4967V41.1572H110.639V47.0724H109.537L107.264 43.5553V47.0724H105.843Z" fill="#414643"/>
<path d="M118.17 47.0724V41.1572H121.935V41.9033H119.839V43.6263H121.509V44.3901H119.839V47.0724H118.17Z" fill="#414643"/>
<path d="M124.528 47.0724V41.1572H126.642C127.122 41.1572 127.548 41.175 127.885 41.2283C128.241 41.2816 128.543 41.3704 128.791 41.477C129.04 41.6013 129.235 41.7612 129.36 41.9566C129.484 42.1697 129.555 42.4184 129.555 42.7026C129.555 43.0757 129.466 43.3776 129.306 43.6085C129.146 43.8395 128.845 44.0171 128.454 44.1237L129.733 47.0368H128.063L126.962 44.3368H126.216V47.0724H124.528ZM126.198 43.6796H126.607C127.104 43.6796 127.459 43.6085 127.654 43.4842C127.868 43.3421 127.974 43.1112 127.974 42.7914C127.974 42.4717 127.885 42.2408 127.708 42.1164C127.53 41.9743 127.193 41.9033 126.713 41.9033H126.216V43.6796H126.198Z" fill="#414643"/>
<path d="M132.521 47.0724V41.1572H136.358V41.921H134.191V43.6263H135.914V44.3901H134.191V46.3441H136.393V47.0901H132.521V47.0724Z" fill="#414643"/>
<path d="M141.384 47.1434C139.768 47.1434 138.915 46.5395 138.844 45.3316L140.301 45.1362C140.336 45.9178 140.692 46.3085 141.349 46.3085C141.598 46.3085 141.793 46.2552 141.917 46.1664C142.042 46.0599 142.095 45.9355 142.095 45.7579C142.095 45.598 142.042 45.4381 141.953 45.3138C141.864 45.1717 141.757 45.0651 141.633 44.9763C141.509 44.8875 141.331 44.7809 141.118 44.6566L139.91 43.9816C139.555 43.7862 139.288 43.573 139.111 43.3599C138.933 43.1467 138.844 42.8803 138.844 42.5605C138.844 42.0987 139.058 41.7434 139.466 41.4947C139.892 41.2461 140.461 41.1039 141.189 41.1039C141.526 41.1039 141.828 41.1217 142.077 41.1928C142.344 41.246 142.557 41.3171 142.717 41.4237C142.876 41.5125 143.018 41.6368 143.143 41.7789C143.249 41.921 143.338 42.0632 143.391 42.223C143.445 42.3651 143.48 42.5428 143.516 42.7204L142.095 42.898C142.095 42.7737 142.077 42.6671 142.059 42.596C142.042 42.5072 142.006 42.4184 141.971 42.3296C141.935 42.2408 141.882 42.1697 141.811 42.1164C141.74 42.0632 141.651 42.0099 141.544 41.9743C141.438 41.9388 141.313 41.921 141.171 41.9388C140.923 41.9566 140.727 42.0099 140.603 42.0987C140.478 42.1875 140.407 42.3296 140.407 42.4895C140.407 42.6849 140.461 42.827 140.585 42.9513C140.709 43.0757 140.887 43.2 141.136 43.3421L142.326 44.0171C142.521 44.1414 142.699 44.248 142.841 44.3546C142.983 44.4612 143.125 44.5855 143.267 44.7276C143.409 44.8697 143.498 45.0296 143.569 45.1895C143.64 45.3493 143.676 45.5447 143.676 45.7224C143.676 46.1487 143.463 46.5039 143.036 46.7704C142.61 47.0013 142.059 47.1434 141.384 47.1434Z" fill="#414643"/>
<path d="M146.375 47.0724V41.1572H148.045V43.6263H149.91V41.1572H151.58V47.0724H149.91V44.4079H148.045V47.0724H146.375Z" fill="#414643"/>
<path d="M154.51 47.0724V46.0776H156.02V47.0724H154.51Z" fill="#414643"/>
<path d="M163.267 47.0724L163.409 41.1572H165.132L166.464 45.3138L167.832 41.1572H169.501L169.661 47.0724H168.4L168.294 43.0046L166.961 47.0724H165.985L164.652 42.9868L164.546 47.0724H163.267Z" fill="#414643"/>
<path d="M172.237 47.0724L174.102 41.1572H175.842L177.707 47.0724H176.144L175.771 45.7046H174.191L173.818 47.0724H172.237ZM174.368 44.9941H175.594L174.972 42.5605L174.368 44.9941Z" fill="#414643"/>
<path d="M180.318 47.0724V41.1572H182.45C183 41.1572 183.462 41.1928 183.835 41.2638C184.208 41.3349 184.51 41.4414 184.741 41.6013C184.972 41.7612 185.132 41.9388 185.221 42.1697C185.309 42.4006 185.363 42.6671 185.363 43.0046V45.1362C185.363 45.4737 185.309 45.7579 185.221 45.9888C185.132 46.2197 184.972 46.4151 184.741 46.5928C184.528 46.7526 184.226 46.877 183.871 46.948C183.498 47.0191 183.054 47.0724 182.521 47.0724H180.318ZM181.988 46.3086H182.468C182.627 46.3086 182.787 46.2908 182.912 46.273C183.036 46.2553 183.142 46.2375 183.231 46.202C183.32 46.1842 183.391 46.1309 183.444 46.0776C183.498 46.0243 183.551 45.9711 183.569 45.9178C183.604 45.8645 183.622 45.7934 183.64 45.6868C183.658 45.5803 183.658 45.4914 183.675 45.4204C183.675 45.3493 183.675 45.2428 183.675 45.1007V42.9335C183.675 42.7914 183.675 42.6849 183.658 42.596C183.658 42.5072 183.64 42.4184 183.604 42.3296C183.569 42.2408 183.533 42.1697 183.48 42.1342C183.427 42.0809 183.356 42.0454 183.267 42.0099C183.178 41.9743 183.071 41.9388 182.929 41.921C182.805 41.9033 182.627 41.9033 182.45 41.9033H181.988V46.3086Z" fill="#414643"/>
<path d="M188.293 47.0724V41.1572H192.13V41.921H189.963V43.6263H191.686V44.3901H189.963V46.3441H192.166V47.0901H188.293V47.0724Z" fill="#414643"/>
<path d="M199.306 47.0724V41.1572H200.975V46.3263H203.178V47.0724H199.306Z" fill="#414643"/>
<path d="M208.151 47.1434C207.21 47.1434 206.535 46.9835 206.126 46.646C205.718 46.3085 205.505 45.8289 205.505 45.1895V43.0046C205.505 42.6849 205.558 42.4184 205.647 42.1875C205.736 41.9566 205.895 41.7612 206.091 41.5836C206.304 41.4237 206.57 41.2816 206.908 41.2105C207.245 41.1217 207.672 41.0862 208.151 41.0862C209.093 41.0862 209.768 41.246 210.176 41.5658C210.585 41.8855 210.798 42.3651 210.798 43.0046V45.1895C210.798 45.4914 210.744 45.7757 210.656 46.0066C210.567 46.2375 210.407 46.4507 210.212 46.6105C209.998 46.7882 209.732 46.9125 209.395 47.0013C209.039 47.0901 208.631 47.1434 208.151 47.1434ZM207.743 46.2908C207.867 46.3263 207.991 46.3441 208.169 46.3441C208.347 46.3441 208.471 46.3263 208.577 46.2908C208.684 46.2553 208.791 46.2197 208.844 46.1664C208.915 46.1132 208.968 46.0599 209.004 45.971C209.039 45.8822 209.075 45.8112 209.075 45.7224C209.093 45.6335 209.093 45.5447 209.093 45.4382V42.7559C209.093 42.6138 209.075 42.4895 209.057 42.4007C209.039 42.3118 208.986 42.223 208.933 42.1342C208.862 42.0454 208.773 41.9921 208.649 41.9388C208.524 41.9033 208.347 41.8678 208.151 41.8678C207.956 41.8678 207.778 41.8855 207.654 41.9388C207.53 41.9743 207.423 42.0454 207.37 42.1342C207.299 42.223 207.263 42.3118 207.245 42.4007C207.228 42.4895 207.21 42.6138 207.21 42.7559V45.4382C207.21 45.5447 207.21 45.6513 207.228 45.7224C207.245 45.8112 207.263 45.8822 207.299 45.971C207.334 46.0599 207.387 46.1132 207.458 46.1664C207.53 46.2197 207.618 46.2553 207.743 46.2908Z" fill="#414643"/>
<path d="M216.197 47.1434C215.807 47.1434 215.451 47.1079 215.149 47.0546C214.847 46.9835 214.599 46.8947 214.403 46.7881C214.208 46.6816 214.048 46.5395 213.924 46.3618C213.799 46.202 213.711 46.0066 213.657 45.8112C213.604 45.6158 213.586 45.4026 213.586 45.1539V43.0934C213.586 42.8447 213.604 42.6138 213.657 42.4184C213.711 42.223 213.799 42.0276 213.924 41.8678C214.048 41.6901 214.208 41.5658 214.403 41.4414C214.599 41.3349 214.847 41.246 215.149 41.1928C215.451 41.1395 215.807 41.1039 216.197 41.1039C216.659 41.1039 217.05 41.1395 217.37 41.2283C217.689 41.2993 217.956 41.4237 218.133 41.5658C218.329 41.7257 218.453 41.9033 218.542 42.0987C218.631 42.2941 218.666 42.5428 218.666 42.8092V43.3066H217.05V42.8092C217.05 42.5072 217.032 42.3118 216.979 42.2053C216.89 42.0099 216.641 41.9033 216.268 41.8855C216.233 41.8855 216.215 41.8855 216.18 41.8855C216.037 41.8855 215.913 41.9033 215.807 41.921C215.7 41.9388 215.611 41.9743 215.558 42.0276C215.487 42.0809 215.434 42.1164 215.398 42.1697C215.362 42.223 215.327 42.2941 215.309 42.3829C215.291 42.4717 215.274 42.5428 215.274 42.6138C215.274 42.6849 215.274 42.7737 215.274 42.8803V45.3849C215.274 45.7401 215.345 45.971 215.469 46.1309C215.611 46.273 215.842 46.3441 216.197 46.3441C216.322 46.3441 216.428 46.3441 216.517 46.3263C216.606 46.3085 216.677 46.2908 216.748 46.2552C216.801 46.2197 216.854 46.1842 216.908 46.1309C216.943 46.0776 216.979 46.0243 216.997 45.9888C217.014 45.9533 217.032 45.8822 217.05 45.8112C217.068 45.7401 217.068 45.6691 217.068 45.6158C217.068 45.5625 217.068 45.4914 217.068 45.3849V44.852H218.684V45.3316C218.684 45.5447 218.666 45.7579 218.613 45.9355C218.56 46.1131 218.489 46.273 218.364 46.4329C218.24 46.5927 218.098 46.7171 217.92 46.8237C217.743 46.9303 217.494 47.0013 217.21 47.0724C216.908 47.1079 216.57 47.1434 216.197 47.1434Z" fill="#414643"/>
<path d="M221.064 47.0724L222.929 41.1572H224.67L226.535 47.0724H224.972L224.599 45.7046H223.018L222.645 47.0724H221.064ZM223.195 44.9941H224.421L223.799 42.5605L223.195 44.9941Z" fill="#414643"/>
<path d="M229.128 47.0724V41.1572H230.798V46.3263H233V47.0724H229.128Z" fill="#414643"/>
<path d="M55.4503 20.5333C54.6865 20.5155 53.3366 20.48 52.4308 20.4622C51.6315 20.4445 50.2461 20.409 48.6475 20.3557C47.866 20.3379 47.0312 20.3201 46.1608 20.2846C42.1822 20.178 37.8305 20.0715 36.978 20.0537C36.0899 20.0359 35.5748 20.0004 35.5215 19.9826C35.5037 19.9649 35.3261 19.5386 35.1307 19.0057C35.0952 18.8991 35.0597 18.7925 35.0064 18.6682C34.811 18.1175 34.5091 17.2826 34.1716 16.2879C33.692 14.9379 33.1236 13.3215 32.573 11.7938C32.3954 11.2965 32.2355 10.8169 32.0579 10.355C31.5961 9.0583 31.1698 7.86817 30.7968 6.78461C29.9975 4.52869 29.3759 2.77014 28.9851 1.65106C28.6654 0.745139 28.4167 -0.000913598 28.399 -0.0186768C28.399 -0.0186768 28.3457 0.212244 28.1681 0.63856C27.6352 1.70435 26.9425 3.96027 25.9478 6.78461C25.6281 7.69053 25.2729 8.66751 24.9177 9.66225L21.2409 19.9826C21.0811 20.0004 19.3937 20.0537 17.3689 20.107C15.1309 20.1603 13.106 20.2136 11.3298 20.2669C10.1753 20.3024 9.1096 20.3201 8.1327 20.3557C2.53771 20.4978 -0.0199929 20.5688 -0.0377548 20.5866C-0.0555166 20.5866 1.04572 21.4392 8.1327 26.857C9.4826 27.8872 11.0279 29.0774 12.8396 30.4629C15.0598 32.1682 16.8715 33.5537 16.8715 33.5715C16.8715 33.6247 16.1611 36.0228 15.3085 38.9359C14.4382 41.8669 13.6389 44.5669 13.5323 44.9399C13.4257 45.3129 12.7863 47.48 12.0936 49.7892C11.4186 52.0807 10.868 53.9813 10.868 53.9813C10.8858 53.9991 10.868 53.9991 14.2073 51.7076L27.5286 42.5596L27.5642 42.5063L28.4167 41.9201L28.5411 42.009C28.6121 42.0623 30.6192 43.43 35.1662 46.5563C37.0312 47.8353 39.3225 49.4162 42.0756 51.2991C44.2248 52.7734 45.9832 53.9813 46.001 53.9813C46.0187 53.9813 45.8944 53.555 45.0596 50.7484C45.0063 50.5708 44.9353 50.3399 44.8465 50.0379L40.104 34.0511C40.033 33.8024 39.9975 33.6247 39.9797 33.5537C39.9797 33.5182 39.9797 33.5004 39.9797 33.5004C40.0152 33.4826 44.4735 30.0544 48.683 26.8215C52.1288 24.1747 55.397 21.6879 55.8766 21.3149C56.4094 20.9063 56.8357 20.5688 56.8535 20.5511C56.8179 20.5866 56.1963 20.5511 55.4503 20.5333ZM28.8963 30.2675C28.843 31.4221 28.7897 32.5945 28.5766 37.1596C28.5411 38.1544 28.4878 39.0603 28.4523 39.753L13.8875 49.7537C15.4506 47.6399 17.8662 44.3537 20.566 40.6945C20.939 40.1971 21.2942 39.6998 21.6495 39.2201C25.7347 33.6958 28.9141 29.3971 28.9141 29.3971C28.9318 29.4149 28.9141 29.8057 28.8963 30.2675ZM23.2125 31.2978C21.4008 31.9195 19.8733 32.4524 18.8786 32.7899L3.85209 21.6169C4.93556 21.9544 6.42756 22.3984 8.16822 22.9313C10.2819 23.5708 12.7863 24.3346 15.4683 25.1517C22.8573 27.4076 28.9318 29.2728 28.9496 29.2728C29.0206 29.2728 28.3457 29.5215 23.2125 31.2978ZM28.9496 29.184C28.9318 29.2017 28.9141 29.184 28.8963 29.1484C28.8785 29.1129 27.2267 27.23 25.2374 24.9563C23.994 23.5353 23.1059 22.5405 22.5198 21.8478L28.399 4.74185L28.5055 6.76685C28.5055 6.76685 28.5055 6.80238 28.5055 6.82014C28.5233 8.02804 28.5588 9.30698 28.5766 10.0886C28.5944 11.1899 28.6476 13.1261 28.6654 14.3872C28.6832 15.6662 28.7364 17.6379 28.7542 18.7925C28.772 19.9471 28.8253 21.9544 28.843 23.2688C28.8785 24.5833 28.9141 26.4307 28.9318 27.4076C28.9496 28.3669 28.9674 29.1662 28.9496 29.184ZM42.9459 49.5583C41.7737 47.8708 39.9264 45.1886 36.9957 40.9254C36.374 40.0195 35.7524 39.1313 35.1662 38.2787C31.827 33.4294 29.2693 29.7346 29.1805 29.5925C29.0739 29.4326 28.9851 29.3083 29.0029 29.3083C29.0206 29.3083 31.2764 30.1787 34.0472 31.2267C35.5215 31.7951 36.8536 32.3103 37.795 32.6655L42.9459 49.5583ZM48.6475 23.0912C47.7061 23.3932 46.7114 23.6951 45.7523 23.9971C42.9104 24.8853 38.0081 26.4307 34.8288 27.4254C31.6672 28.4201 29.0384 29.255 29.0029 29.255C28.9674 29.2728 29.0029 29.2017 29.0739 29.1129C29.145 29.0063 30.5482 27.0346 32.1822 24.6899L34.1893 21.8122L51.596 22.1497C50.7967 22.4162 49.7665 22.7359 48.6475 23.0912Z" fill="#489C15"/>
</g>
<defs>
<clipPath id="clip0">
<rect width="233" height="54" fill="white"/>
</clipPath>
</defs>
</svg>
