<svg width="57" height="55" viewBox="0 0 57 55" fill="none" xmlns="http://www.w3.org/2000/svg">
<path d="M55.4882 20.552C54.7245 20.5342 53.3746 20.4987 52.4687 20.4809C51.6694 20.4632 50.284 20.4276 48.6855 20.3743C47.9039 20.3566 47.0691 20.3388 46.1988 20.3033C42.2201 20.1967 37.8685 20.0901 37.0159 20.0724C36.1278 20.0546 35.6127 20.0191 35.5594 20.0013C35.5417 19.9836 35.3641 19.5572 35.1687 19.0243C35.1332 18.9178 35.0976 18.8112 35.0443 18.6868C34.849 18.1362 34.547 17.3013 34.2095 16.3066C33.73 14.9566 33.1616 13.3401 32.611 11.8125C32.4334 11.3151 32.2735 10.8355 32.0959 10.3737C31.6341 9.07697 31.2078 7.88684 30.8348 6.80329C30.0355 4.54737 29.4138 2.78882 29.0231 1.66974C28.7034 0.763816 28.4547 0.0177632 28.4369 0C28.4369 0 28.3837 0.230921 28.206 0.657237C27.6732 1.72303 26.9805 3.97895 25.9858 6.80329C25.6661 7.70921 25.3109 8.68618 24.9556 9.68092L21.2789 20.0013C21.1191 20.0191 19.4317 20.0724 17.4068 20.1257C15.1688 20.1789 13.144 20.2322 11.3678 20.2855C10.2133 20.3211 9.14756 20.3388 8.17066 20.3743C2.57568 20.5164 0.0179709 20.5875 0.000209079 20.6053C-0.0175528 20.6053 1.08368 21.4579 8.17066 26.8757C9.52056 27.9059 11.0658 29.0961 12.8776 30.4816C15.0978 32.1868 16.9095 33.5724 16.9095 33.5901C16.9095 33.6434 16.199 36.0415 15.3465 38.9546C14.4761 41.8855 13.6768 44.5855 13.5703 44.9586C13.4637 45.3316 12.8243 47.4987 12.1316 49.8079C11.4566 52.0993 10.906 54 10.906 54C10.9237 54.0178 10.906 54.0178 14.2452 51.7263L27.5666 42.5783L27.6021 42.525L28.4547 41.9388L28.579 42.0276C28.6501 42.0809 30.6572 43.4487 35.2042 46.575C37.0692 47.854 39.3605 49.4349 42.1136 51.3178C44.2627 52.7921 46.0212 54 46.0389 54C46.0567 54 45.9324 53.5737 45.0976 50.7671C45.0443 50.5895 44.9732 50.3586 44.8844 50.0566L40.142 34.0697C40.071 33.8211 40.0354 33.6434 40.0177 33.5724C40.0177 33.5368 40.0177 33.5191 40.0177 33.5191C40.0532 33.5013 44.5114 30.073 48.721 26.8401C52.1668 24.1934 55.435 21.7066 55.9145 21.3336C56.4474 20.925 56.8737 20.5875 56.8914 20.5697C56.8559 20.6053 56.2342 20.5697 55.4882 20.552ZM28.9343 30.2862C28.881 31.4408 28.8277 32.6132 28.6146 37.1783C28.579 38.173 28.5257 39.079 28.4902 39.7717L13.9255 49.7724C15.4885 47.6586 17.9042 44.3724 20.604 40.7132C20.977 40.2158 21.3322 39.7184 21.6874 39.2388C25.7727 33.7145 28.952 29.4158 28.952 29.4158C28.9698 29.4336 28.952 29.8243 28.9343 30.2862ZM23.2505 31.3165C21.4388 31.9382 19.9112 32.4711 18.9166 32.8086L3.89006 21.6355C4.97353 21.973 6.46552 22.4171 8.20619 22.95C10.3198 23.5895 12.8243 24.3533 15.5063 25.1704C22.8952 27.4263 28.9698 29.2915 28.9876 29.2915C29.0586 29.2915 28.3837 29.5401 23.2505 31.3165ZM28.9876 29.2026C28.9698 29.2204 28.952 29.2026 28.9343 29.1671C28.9165 29.1316 27.2647 27.2487 25.2753 24.975C24.032 23.554 23.1439 22.5592 22.5578 21.8664L28.4369 4.76053L28.5435 6.78553C28.5435 6.78553 28.5435 6.82105 28.5435 6.83882C28.5613 8.04671 28.5968 9.32566 28.6146 10.1072C28.6323 11.2086 28.6856 13.1447 28.7034 14.4059C28.7211 15.6849 28.7744 17.6566 28.7922 18.8112C28.8099 19.9658 28.8632 21.973 28.881 23.2875C28.9165 24.602 28.952 26.4493 28.9698 27.4263C28.9876 28.3855 29.0053 29.1849 28.9876 29.2026ZM42.9839 49.577C41.8116 47.8895 39.9644 45.2072 37.0337 40.9441C36.412 40.0382 35.7903 39.15 35.2042 38.2974C31.865 33.448 29.3073 29.7533 29.2185 29.6112C29.1119 29.4513 29.0231 29.327 29.0408 29.327C29.0586 29.327 31.3144 30.1974 34.0852 31.2454C35.5594 31.8138 36.8916 32.329 37.833 32.6842L42.9839 49.577ZM48.6855 23.1099C47.7441 23.4118 46.7494 23.7138 45.7903 24.0158C42.9484 24.904 38.0461 26.4493 34.8667 27.4441C31.7051 28.4388 29.0764 29.2737 29.0408 29.2737C29.0053 29.2915 29.0408 29.2204 29.1119 29.1316C29.1829 29.025 30.5861 27.0533 32.2202 24.7086L34.2273 21.8309L51.6339 22.1684C50.8346 22.4349 49.8044 22.7546 48.6855 23.1099Z" fill="#489C15"/>
</svg>
