<svg width="671" height="621" viewBox="0 0 671 621" fill="none" xmlns="http://www.w3.org/2000/svg">
<path d="M184.414 0H338.783C338.901 36.6366 338.975 73.2659 339.291 109.903C339.291 111.571 341.124 113.804 342.721 114.789C351.388 120.211 360.884 124.182 370.835 126.546C382.117 129.191 392.465 135.495 404.579 135.047C409.517 134.863 413.631 136.384 415.471 142.219C420.343 136.164 426.194 135.951 432.597 137.347C451.136 141.388 469.698 145.29 488.266 149.214C490.253 149.633 493.035 150.83 494.154 149.949C498.077 147.01 498.96 150.169 500.277 152.396C501.918 155.18 504.163 158.09 507.225 155.731C511.891 152.138 517.079 152.91 522.099 152.528C536.943 151.404 551.95 148.92 566.647 150.066C591.67 152.013 616.457 156.238 639.464 167.473C643.143 169.288 644.704 170.993 644.711 175.189C644.763 202.905 645.072 230.614 645.366 258.33C645.366 260.292 645.543 262.467 646.389 264.209C651.541 274.643 656.781 285.033 662.264 295.298C664.862 300.162 668.071 304.695 671 309.376V320.545C670.264 326.798 669.653 333.036 668.711 339.297C665.959 357.593 666.084 376.485 657.753 393.627C656.737 395.714 654.809 397.94 652.777 398.852C639.861 404.59 626.79 409.984 613.771 415.45C612.548 415.885 611.299 416.246 610.032 416.531L609.576 415.627L618.621 407.72H608.192L609.716 394.149C606.816 396.405 605.116 398.153 603.092 399.204C601.068 400.255 598.809 400.497 596.513 401.137C597.697 404.26 599.309 407.625 600.266 411.167C602.474 419.286 601.598 420.66 594.231 424.679C591.788 426.009 588.203 428.001 587.924 430.058C586.783 438.486 581.05 443.358 574.875 447.223C560.7 456.106 546.003 464.167 531.504 472.529C531.335 472.625 530.923 472.301 530.768 472.235L533.712 458.186L532.564 457.194C525.889 464.542 519.096 465.196 512.119 457.576C510.161 466.812 521.686 465.526 522.364 472.639L508.262 479.443L504.759 472.904L502.963 474.197C503.353 476.504 503.699 478.804 504.134 481.111C504.752 484.646 504.31 487.35 501.764 490.664C491.46 503.978 479.39 516.183 474.091 532.796C473.267 535.39 471.78 537.771 471.015 539.41C467.843 539.718 465.554 540.027 463.258 540.144C461.05 540.255 458.894 540.144 455.898 540.144C460.41 545.354 466.202 540.96 470.404 543.466C472.428 549.028 470.794 553.907 468.056 558.837C466.938 560.843 466.297 563.768 466.835 565.928C470.183 579.448 473.885 592.88 477.595 606.305C477.933 607.532 478.905 609.068 479.986 609.538C485.97 612.154 486.772 613.594 485.02 620.971C478.169 620.971 471.118 621.074 464.075 620.89C462.522 620.854 460.991 619.818 459.453 619.23C452.189 616.467 445.094 613.08 437.624 611.081C427.041 608.252 416.104 606.753 405.462 604.115C392.009 600.772 381.86 593.622 378.231 579.169C376.814 573.583 374.695 568.198 371.924 563.143C364.137 548.991 355.689 535.221 347.836 521.091C333.315 494.999 316.925 469.928 306.025 441.859C302.816 433.578 297.127 426.906 289.164 421.755C281.884 416.954 275.424 411.017 270.029 404.171C266.798 400.108 263.862 398.095 258.989 397.5C249.223 396.317 239.354 395.295 229.823 393.032C224.524 391.768 220.631 392.018 216.428 395.376C214.066 397.264 210.658 399.63 208.149 399.219C200.656 397.977 198.633 402.797 196.756 407.934C195.555 411.063 194.847 414.36 194.658 417.706C194.312 427.692 188.866 435.099 182.839 442.263C182.103 443.145 180.52 444.254 179.711 444.012C172.866 441.94 165.808 440.191 159.398 437.134C152.774 433.975 146.96 429.176 140.491 425.642C135.457 422.894 129.878 421.145 124.675 418.676C116.329 414.716 110.184 409.05 107.284 399.63C103.302 386.683 97.4368 374.302 93.7201 361.296C90.3494 349.54 83.0633 342.603 72.0237 338.709C65.3247 336.367 59.4652 332.107 55.1774 326.46C49.4589 319.112 42.975 312.403 37.0725 305.203C34.5261 302.102 31.8104 300.448 27.6742 300.228C24.9575 300.001 22.388 298.9 20.3513 297.09C14.8978 292.028 9.84166 286.539 4.72667 281.123C0.752435 276.928 -0.719504 272.005 0.325572 265.112H180.108L184.414 0Z" fill="white"/>
</svg>
